<svg width="1046" height="730" viewBox="0 0 1046 730" fill="none" xmlns="http://www.w3.org/2000/svg">
<g clip-path="url(#clip0)">
<path opacity="0.1" d="M417.15 93.3C378.171 56.1487 328.104 32.7757 274.595 26.7502C221.086 20.7247 167.075 32.3778 120.81 59.93C215.79 93.93 320.59 95.18 417.15 93.3Z" fill="#F50057"/>
<path opacity="0.1" d="M967.64 645.48L863.92 465.83C863.631 465.325 863.214 464.905 862.711 464.613C862.208 464.321 861.637 464.168 861.055 464.168C860.473 464.168 859.902 464.321 859.399 464.613C858.896 464.905 858.479 465.325 858.19 465.83L754.47 645.48C754.168 645.983 754.005 646.558 753.999 647.144C753.992 647.731 754.142 648.309 754.434 648.819C754.725 649.328 755.147 649.751 755.656 650.043C756.165 650.335 756.743 650.486 757.33 650.48H788.27C789.147 650.483 789.987 650.832 790.608 651.452C791.228 652.073 791.577 652.913 791.58 653.79V692.13C791.58 693.006 791.927 693.847 792.546 694.467C793.165 695.087 794.004 695.437 794.88 695.44H835.25C836.128 695.44 836.97 695.091 837.591 694.471C838.211 693.85 838.56 693.008 838.56 692.13V673.6C838.56 672.725 838.908 671.885 839.527 671.267C840.145 670.648 840.985 670.3 841.86 670.3H880.24C881.116 670.3 881.957 670.647 882.577 671.266C883.197 671.885 883.547 672.724 883.55 673.6V692.13C883.55 693.008 883.899 693.85 884.519 694.471C885.14 695.091 885.982 695.44 886.86 695.44H927.22C928.098 695.44 928.94 695.091 929.561 694.471C930.181 693.85 930.53 693.008 930.53 692.13V653.75C930.53 652.872 930.879 652.03 931.499 651.409C932.12 650.789 932.962 650.44 933.84 650.44H964.78C965.36 650.438 965.929 650.284 966.43 649.994C966.932 649.703 967.348 649.286 967.638 648.783C967.928 648.281 968.08 647.712 968.081 647.132C968.081 646.552 967.929 645.983 967.64 645.48V645.48ZM823 665.36C822.696 665.673 822.332 665.923 821.93 666.095C821.529 666.266 821.097 666.356 820.66 666.36H806.13C805.252 666.36 804.41 666.011 803.79 665.391C803.169 664.77 802.82 663.928 802.82 663.05C802.82 662.172 803.169 661.33 803.79 660.709C804.41 660.089 805.252 659.74 806.13 659.74H820.69C821.345 659.74 821.984 659.934 822.528 660.298C823.073 660.662 823.497 661.179 823.747 661.783C823.998 662.388 824.063 663.053 823.935 663.695C823.808 664.337 823.493 664.927 823.03 665.39L823 665.36ZM918.28 665.36C917.976 665.673 917.612 665.923 917.21 666.095C916.809 666.266 916.377 666.356 915.94 666.36H901.42C900.542 666.36 899.7 666.011 899.079 665.391C898.459 664.77 898.11 663.928 898.11 663.05C898.11 662.172 898.459 661.33 899.079 660.709C899.7 660.089 900.542 659.74 901.42 659.74H916C916.655 659.74 917.294 659.934 917.838 660.298C918.383 660.662 918.807 661.179 919.057 661.783C919.308 662.388 919.373 663.053 919.245 663.695C919.118 664.337 918.803 664.927 918.34 665.39L918.28 665.36Z" fill="#F50057"/>
<path opacity="0.1" d="M326.55 647.06L222.83 467.41C222.539 466.908 222.122 466.49 221.619 466.2C221.116 465.91 220.546 465.758 219.965 465.758C219.385 465.758 218.814 465.91 218.311 466.2C217.808 466.49 217.391 466.908 217.1 467.41L127.51 622.58C138.703 636.685 151.26 649.651 165 661.29H179.6C180.478 661.29 181.32 661.639 181.941 662.259C182.561 662.88 182.91 663.722 182.91 664.6C182.91 665.478 182.561 666.32 181.941 666.94C181.32 667.561 180.478 667.91 179.6 667.91H173.44C180.985 673.584 189.016 678.58 197.44 682.84V675.19C197.44 674.312 197.789 673.47 198.41 672.849C199.03 672.229 199.872 671.88 200.75 671.88H239.13C240.006 671.883 240.845 672.233 241.464 672.853C242.083 673.473 242.43 674.314 242.43 675.19V693.71C242.428 694.191 242.534 694.666 242.74 695.1C243.005 695.673 243.428 696.158 243.96 696.498C244.491 696.838 245.109 697.019 245.74 697.02H286.11C286.622 697.022 287.128 696.903 287.585 696.671C288.042 696.44 288.438 696.104 288.74 695.69C289.184 695.119 289.421 694.413 289.41 693.69V655.34C289.41 654.462 289.759 653.62 290.38 652.999C291 652.379 291.842 652.03 292.72 652.03H323.66C324.244 652.035 324.818 651.885 325.326 651.596C325.833 651.307 326.254 650.889 326.548 650.384C326.841 649.879 326.996 649.306 326.996 648.722C326.997 648.139 326.843 647.565 326.55 647.06V647.06ZM258 662.26C258.304 661.947 258.668 661.697 259.07 661.525C259.471 661.354 259.903 661.264 260.34 661.26H274.9C275.778 661.26 276.62 661.609 277.241 662.229C277.861 662.85 278.21 663.692 278.21 664.57C278.21 665.448 277.861 666.29 277.241 666.911C276.62 667.531 275.778 667.88 274.9 667.88H260.33C259.675 667.88 259.036 667.686 258.492 667.322C257.947 666.958 257.523 666.441 257.273 665.837C257.023 665.232 256.957 664.566 257.085 663.925C257.212 663.283 257.527 662.693 257.99 662.23L258 662.26ZM192.85 595.78C191.972 595.78 191.13 595.431 190.51 594.81C189.889 594.19 189.54 593.348 189.54 592.47V567.33C189.54 566.452 189.889 565.61 190.51 564.989C191.13 564.369 191.972 564.02 192.85 564.02H247.1C247.976 564.023 248.815 564.373 249.434 564.993C250.053 565.613 250.4 566.454 250.4 567.33V592.47C250.4 593.346 250.053 594.187 249.434 594.807C248.815 595.427 247.976 595.777 247.1 595.78H192.85Z" fill="#F50057"/>
<path opacity="0.1" d="M736.53 324.34H608.18V296.58C608.18 294.819 607.48 293.13 606.235 291.885C604.99 290.64 603.301 289.94 601.54 289.94H563.85V260.37C563.85 259.261 563.41 258.198 562.626 257.414C561.842 256.63 560.779 256.19 559.67 256.19H511.12C510.011 256.19 508.948 256.63 508.164 257.414C507.38 258.198 506.94 259.261 506.94 260.37V289.93H462.63C460.869 289.93 459.18 290.63 457.935 291.875C456.69 293.12 455.99 294.809 455.99 296.57V324.33H333.6C333.244 324.333 332.903 324.476 332.652 324.729C332.401 324.982 332.26 325.324 332.26 325.68V694.21C332.26 694.566 332.401 694.908 332.652 695.161C332.903 695.414 333.244 695.557 333.6 695.56H414.94C415.298 695.56 415.641 695.418 415.895 695.165C416.148 694.911 416.29 694.568 416.29 694.21V644.63C416.293 644.273 416.436 643.931 416.688 643.678C416.941 643.426 417.283 643.283 417.64 643.28H452C452.357 643.283 452.699 643.426 452.952 643.678C453.204 643.931 453.347 644.273 453.35 644.63V694.21C453.35 694.566 453.491 694.908 453.742 695.161C453.993 695.414 454.334 695.557 454.69 695.56H615.44C615.797 695.557 616.139 695.414 616.392 695.162C616.644 694.909 616.787 694.567 616.79 694.21V644.63C616.79 644.274 616.931 643.932 617.182 643.679C617.433 643.426 617.774 643.283 618.13 643.28H652.49C652.848 643.28 653.191 643.422 653.445 643.675C653.698 643.929 653.84 644.272 653.84 644.63V694.21C653.843 694.567 653.986 694.909 654.238 695.162C654.491 695.414 654.833 695.557 655.19 695.56H736.53C736.887 695.557 737.229 695.414 737.482 695.162C737.734 694.909 737.877 694.567 737.88 694.21V325.69C737.877 325.333 737.734 324.991 737.482 324.738C737.229 324.486 736.887 324.343 736.53 324.34V324.34ZM401.73 626.06C401.73 626.415 401.589 626.756 401.338 627.008C401.086 627.259 400.745 627.4 400.39 627.4H350.15C349.973 627.401 349.798 627.368 349.634 627.301C349.47 627.234 349.322 627.136 349.196 627.011C349.071 626.886 348.971 626.738 348.903 626.575C348.835 626.412 348.8 626.237 348.8 626.06V608.93C348.8 608.572 348.942 608.229 349.195 607.975C349.449 607.722 349.792 607.58 350.15 607.58H400.39C400.746 607.583 401.087 607.726 401.338 607.979C401.589 608.232 401.73 608.574 401.73 608.93V626.06ZM401.73 581.72C401.731 581.897 401.698 582.072 401.631 582.236C401.564 582.4 401.466 582.549 401.341 582.674C401.217 582.8 401.068 582.899 400.905 582.967C400.742 583.035 400.567 583.07 400.39 583.07H350.15C349.972 583.071 349.796 583.037 349.632 582.97C349.467 582.903 349.318 582.803 349.192 582.678C349.067 582.552 348.967 582.403 348.9 582.238C348.833 582.074 348.799 581.898 348.8 581.72V564.57C348.799 564.392 348.833 564.216 348.9 564.052C348.967 563.887 349.067 563.738 349.192 563.612C349.318 563.487 349.467 563.387 349.632 563.32C349.796 563.253 349.972 563.219 350.15 563.22H400.39C400.567 563.22 400.742 563.255 400.905 563.323C401.068 563.391 401.217 563.491 401.341 563.616C401.466 563.742 401.564 563.89 401.631 564.054C401.698 564.218 401.731 564.393 401.73 564.57V581.72ZM401.73 537.39C401.73 537.746 401.589 538.088 401.338 538.341C401.087 538.594 400.746 538.737 400.39 538.74H350.15C349.973 538.74 349.797 538.705 349.633 538.637C349.47 538.569 349.321 538.47 349.195 538.345C349.07 538.219 348.971 538.07 348.903 537.907C348.835 537.743 348.8 537.567 348.8 537.39V520.23C348.8 519.872 348.942 519.529 349.195 519.275C349.449 519.022 349.792 518.88 350.15 518.88H400.39C400.746 518.883 401.087 519.026 401.338 519.279C401.589 519.532 401.73 519.874 401.73 520.23V537.39ZM401.73 493.05C401.731 493.227 401.698 493.402 401.631 493.566C401.564 493.73 401.466 493.878 401.341 494.004C401.217 494.129 401.068 494.229 400.905 494.297C400.742 494.365 400.567 494.4 400.39 494.4H350.15C349.972 494.401 349.796 494.367 349.632 494.3C349.467 494.233 349.318 494.133 349.192 494.008C349.067 493.882 348.967 493.733 348.9 493.568C348.833 493.404 348.799 493.228 348.8 493.05V475.93C348.799 475.752 348.833 475.576 348.9 475.412C348.967 475.247 349.067 475.098 349.192 474.972C349.318 474.847 349.467 474.747 349.632 474.68C349.796 474.613 349.972 474.579 350.15 474.58H400.39C400.567 474.58 400.742 474.615 400.905 474.683C401.068 474.751 401.217 474.851 401.341 474.976C401.466 475.102 401.564 475.25 401.631 475.414C401.698 475.578 401.731 475.753 401.73 475.93V493.05ZM401.73 448.72C401.73 449.076 401.589 449.418 401.338 449.671C401.087 449.924 400.746 450.067 400.39 450.07H350.15C349.792 450.07 349.449 449.928 349.195 449.675C348.942 449.421 348.8 449.078 348.8 448.72V431.56C348.8 431.383 348.835 431.208 348.903 431.045C348.971 430.882 349.071 430.733 349.196 430.609C349.322 430.484 349.47 430.386 349.634 430.319C349.798 430.252 349.973 430.219 350.15 430.22H400.39C400.745 430.22 401.086 430.361 401.338 430.612C401.589 430.864 401.73 431.205 401.73 431.56V448.72ZM401.73 404.39C401.73 404.745 401.589 405.086 401.338 405.338C401.086 405.589 400.745 405.73 400.39 405.73H350.15C349.973 405.731 349.798 405.698 349.634 405.631C349.47 405.564 349.322 405.466 349.196 405.341C349.071 405.217 348.971 405.068 348.903 404.905C348.835 404.742 348.8 404.567 348.8 404.39V387.23C348.8 386.872 348.942 386.529 349.195 386.275C349.449 386.022 349.792 385.88 350.15 385.88H400.39C400.746 385.883 401.087 386.026 401.338 386.279C401.589 386.532 401.73 386.874 401.73 387.23V404.39ZM401.73 360.05C401.731 360.227 401.698 360.402 401.631 360.566C401.564 360.73 401.466 360.879 401.341 361.004C401.217 361.129 401.068 361.229 400.905 361.297C400.742 361.365 400.567 361.4 400.39 361.4H350.15C349.972 361.401 349.796 361.367 349.632 361.3C349.467 361.233 349.318 361.133 349.192 361.008C349.067 360.882 348.967 360.733 348.9 360.568C348.833 360.404 348.799 360.228 348.8 360.05V342.93C348.799 342.752 348.833 342.576 348.9 342.412C348.967 342.247 349.067 342.098 349.192 341.972C349.318 341.847 349.467 341.747 349.632 341.68C349.796 341.613 349.972 341.579 350.15 341.58H400.39C400.567 341.58 400.742 341.615 400.905 341.683C401.068 341.751 401.217 341.851 401.341 341.976C401.466 342.102 401.564 342.25 401.631 342.414C401.698 342.578 401.731 342.753 401.73 342.93V360.05ZM520.84 626.05C520.84 626.227 520.805 626.402 520.737 626.565C520.669 626.728 520.569 626.877 520.444 627.001C520.318 627.126 520.17 627.224 520.006 627.291C519.842 627.358 519.667 627.391 519.49 627.39H469.25C468.894 627.39 468.552 627.249 468.299 626.998C468.046 626.747 467.903 626.406 467.9 626.05V608.93C467.903 608.573 468.046 608.231 468.298 607.978C468.551 607.726 468.893 607.583 469.25 607.58H519.49C519.848 607.58 520.191 607.722 520.445 607.975C520.698 608.229 520.84 608.572 520.84 608.93V626.05ZM520.84 581.71C520.841 581.888 520.807 582.064 520.74 582.228C520.673 582.393 520.573 582.542 520.448 582.668C520.322 582.793 520.173 582.893 520.008 582.96C519.844 583.027 519.668 583.061 519.49 583.06H469.25C469.073 583.06 468.897 583.025 468.733 582.957C468.57 582.889 468.421 582.79 468.295 582.665C468.17 582.539 468.071 582.39 468.003 582.227C467.935 582.063 467.9 581.887 467.9 581.71V564.57C467.9 564.393 467.935 564.217 468.003 564.053C468.071 563.89 468.17 563.741 468.295 563.615C468.421 563.49 468.57 563.391 468.733 563.323C468.897 563.255 469.073 563.22 469.25 563.22H519.49C519.668 563.219 519.844 563.253 520.008 563.32C520.173 563.387 520.322 563.487 520.448 563.612C520.573 563.738 520.673 563.887 520.74 564.052C520.807 564.216 520.841 564.392 520.84 564.57V581.71ZM520.84 537.38C520.84 537.738 520.698 538.081 520.445 538.335C520.191 538.588 519.848 538.73 519.49 538.73H469.25C468.893 538.727 468.551 538.584 468.298 538.332C468.046 538.079 467.903 537.737 467.9 537.38V520.23C467.903 519.873 468.046 519.531 468.298 519.278C468.551 519.026 468.893 518.883 469.25 518.88H519.49C519.848 518.88 520.191 519.022 520.445 519.275C520.698 519.529 520.84 519.872 520.84 520.23V537.38ZM520.84 493.04C520.841 493.218 520.807 493.394 520.74 493.558C520.673 493.723 520.573 493.872 520.448 493.998C520.322 494.123 520.173 494.223 520.008 494.29C519.844 494.357 519.668 494.391 519.49 494.39H469.25C469.073 494.39 468.897 494.355 468.733 494.287C468.57 494.219 468.421 494.12 468.295 493.995C468.17 493.869 468.071 493.72 468.003 493.557C467.935 493.393 467.9 493.217 467.9 493.04V475.93C467.9 475.753 467.935 475.577 468.003 475.413C468.071 475.25 468.17 475.101 468.295 474.975C468.421 474.85 468.57 474.751 468.733 474.683C468.897 474.615 469.073 474.58 469.25 474.58H519.49C519.668 474.579 519.844 474.613 520.008 474.68C520.173 474.747 520.322 474.847 520.448 474.972C520.573 475.098 520.673 475.247 520.74 475.412C520.807 475.576 520.841 475.752 520.84 475.93V493.04ZM520.84 448.71C520.84 449.068 520.698 449.411 520.445 449.665C520.191 449.918 519.848 450.06 519.49 450.06H469.25C468.893 450.057 468.551 449.914 468.298 449.662C468.046 449.409 467.903 449.067 467.9 448.71V431.56C467.903 431.204 468.046 430.863 468.299 430.612C468.552 430.361 468.894 430.22 469.25 430.22H519.49C519.667 430.219 519.842 430.252 520.006 430.319C520.17 430.386 520.318 430.484 520.444 430.609C520.569 430.733 520.669 430.882 520.737 431.045C520.805 431.208 520.84 431.383 520.84 431.56V448.71ZM520.84 404.38C520.84 404.557 520.805 404.732 520.737 404.895C520.669 405.058 520.569 405.206 520.444 405.331C520.318 405.456 520.17 405.554 520.006 405.621C519.842 405.688 519.667 405.721 519.49 405.72H469.25C468.894 405.72 468.552 405.579 468.299 405.328C468.046 405.077 467.903 404.736 467.9 404.38V387.23C467.903 386.873 468.046 386.531 468.298 386.278C468.551 386.026 468.893 385.883 469.25 385.88H519.49C519.848 385.88 520.191 386.022 520.445 386.275C520.698 386.529 520.84 386.872 520.84 387.23V404.38ZM520.84 360.04C520.841 360.218 520.807 360.394 520.74 360.558C520.673 360.723 520.573 360.872 520.448 360.998C520.322 361.123 520.173 361.223 520.008 361.29C519.844 361.357 519.668 361.391 519.49 361.39H469.25C469.073 361.39 468.897 361.355 468.733 361.287C468.57 361.219 468.421 361.12 468.295 360.995C468.17 360.869 468.071 360.72 468.003 360.557C467.935 360.393 467.9 360.217 467.9 360.04V342.93C467.9 342.753 467.935 342.577 468.003 342.413C468.071 342.25 468.17 342.101 468.295 341.975C468.421 341.85 468.57 341.751 468.733 341.683C468.897 341.615 469.073 341.58 469.25 341.58H519.49C519.668 341.579 519.844 341.613 520.008 341.68C520.173 341.747 520.322 341.847 520.448 341.972C520.573 342.098 520.673 342.247 520.74 342.412C520.807 342.576 520.841 342.752 520.84 342.93V360.04ZM602.23 626.04C602.23 626.217 602.195 626.392 602.127 626.555C602.059 626.718 601.959 626.867 601.834 626.991C601.708 627.116 601.56 627.214 601.396 627.281C601.232 627.348 601.057 627.381 600.88 627.38H550.64C550.284 627.38 549.942 627.239 549.689 626.988C549.436 626.737 549.293 626.396 549.29 626.04V608.93C549.293 608.573 549.436 608.231 549.688 607.978C549.941 607.726 550.283 607.583 550.64 607.58H600.88C601.238 607.58 601.581 607.722 601.835 607.975C602.088 608.229 602.23 608.572 602.23 608.93V626.04ZM602.23 581.7C602.231 581.878 602.197 582.054 602.13 582.218C602.063 582.383 601.963 582.532 601.838 582.658C601.712 582.783 601.563 582.883 601.398 582.95C601.234 583.017 601.058 583.051 600.88 583.05H550.64C550.463 583.05 550.287 583.015 550.123 582.947C549.96 582.879 549.811 582.78 549.685 582.655C549.56 582.529 549.461 582.38 549.393 582.217C549.325 582.053 549.29 581.877 549.29 581.7V564.57C549.29 564.393 549.325 564.217 549.393 564.053C549.461 563.89 549.56 563.741 549.685 563.615C549.811 563.49 549.96 563.391 550.123 563.323C550.287 563.255 550.463 563.22 550.64 563.22H600.88C601.058 563.219 601.234 563.253 601.398 563.32C601.563 563.387 601.712 563.487 601.838 563.612C601.963 563.738 602.063 563.887 602.13 564.052C602.197 564.216 602.231 564.392 602.23 564.57V581.7ZM602.23 537.37C602.23 537.728 602.088 538.071 601.835 538.325C601.581 538.578 601.238 538.72 600.88 538.72H550.64C550.283 538.717 549.941 538.574 549.688 538.322C549.436 538.069 549.293 537.727 549.29 537.37V520.23C549.293 519.873 549.436 519.531 549.688 519.278C549.941 519.026 550.283 518.883 550.64 518.88H600.88C601.238 518.88 601.581 519.022 601.835 519.275C602.088 519.529 602.23 519.872 602.23 520.23V537.37ZM602.23 493.03C602.231 493.208 602.197 493.384 602.13 493.548C602.063 493.713 601.963 493.862 601.838 493.988C601.712 494.113 601.563 494.213 601.398 494.28C601.234 494.347 601.058 494.381 600.88 494.38H550.64C550.463 494.38 550.287 494.345 550.123 494.277C549.96 494.209 549.811 494.11 549.685 493.985C549.56 493.859 549.461 493.71 549.393 493.547C549.325 493.383 549.29 493.207 549.29 493.03V475.93C549.29 475.753 549.325 475.577 549.393 475.413C549.461 475.25 549.56 475.101 549.685 474.975C549.811 474.85 549.96 474.751 550.123 474.683C550.287 474.615 550.463 474.58 550.64 474.58H600.88C601.058 474.579 601.234 474.613 601.398 474.68C601.563 474.747 601.712 474.847 601.838 474.972C601.963 475.098 602.063 475.247 602.13 475.412C602.197 475.576 602.231 475.752 602.23 475.93V493.03ZM602.23 448.7C602.23 449.058 602.088 449.401 601.835 449.655C601.581 449.908 601.238 450.05 600.88 450.05H550.64C550.283 450.047 549.941 449.904 549.688 449.652C549.436 449.399 549.293 449.057 549.29 448.7V431.56C549.293 431.204 549.436 430.863 549.689 430.612C549.942 430.361 550.284 430.22 550.64 430.22H600.88C601.057 430.219 601.232 430.252 601.396 430.319C601.56 430.386 601.708 430.484 601.834 430.609C601.959 430.733 602.059 430.882 602.127 431.045C602.195 431.208 602.23 431.383 602.23 431.56V448.7ZM602.23 404.37C602.23 404.547 602.195 404.722 602.127 404.885C602.059 405.048 601.959 405.197 601.834 405.321C601.708 405.446 601.56 405.544 601.396 405.611C601.232 405.678 601.057 405.711 600.88 405.71H550.64C550.284 405.71 549.942 405.569 549.689 405.318C549.436 405.067 549.293 404.726 549.29 404.37V387.23C549.293 386.873 549.436 386.531 549.688 386.278C549.941 386.026 550.283 385.883 550.64 385.88H600.88C601.238 385.88 601.581 386.022 601.835 386.275C602.088 386.529 602.23 386.872 602.23 387.23V404.37ZM602.23 360.03C602.231 360.208 602.197 360.384 602.13 360.548C602.063 360.713 601.963 360.862 601.838 360.988C601.712 361.113 601.563 361.213 601.398 361.28C601.234 361.347 601.058 361.381 600.88 361.38H550.64C550.463 361.38 550.287 361.345 550.123 361.277C549.96 361.209 549.811 361.11 549.685 360.985C549.56 360.859 549.461 360.71 549.393 360.547C549.325 360.383 549.29 360.207 549.29 360.03V342.93C549.29 342.753 549.325 342.577 549.393 342.413C549.461 342.25 549.56 342.101 549.685 341.975C549.811 341.85 549.96 341.751 550.123 341.683C550.287 341.615 550.463 341.58 550.64 341.58H600.88C601.058 341.579 601.234 341.613 601.398 341.68C601.563 341.747 601.712 341.847 601.838 341.972C601.963 342.098 602.063 342.247 602.13 342.412C602.197 342.576 602.231 342.752 602.23 342.93V360.03ZM721.34 626.03C721.337 626.386 721.194 626.727 720.941 626.978C720.688 627.229 720.346 627.37 719.99 627.37H669.75C669.573 627.371 669.398 627.338 669.234 627.271C669.07 627.204 668.922 627.106 668.796 626.981C668.671 626.857 668.571 626.708 668.503 626.545C668.435 626.382 668.4 626.207 668.4 626.03V608.93C668.4 608.572 668.542 608.229 668.795 607.975C669.049 607.722 669.392 607.58 669.75 607.58H720C720.357 607.583 720.699 607.726 720.952 607.978C721.204 608.231 721.347 608.573 721.35 608.93L721.34 626.03ZM721.34 581.69C721.34 582.048 721.198 582.391 720.945 582.645C720.691 582.898 720.348 583.04 719.99 583.04H669.75C669.572 583.041 669.396 583.007 669.232 582.94C669.067 582.873 668.918 582.773 668.792 582.648C668.667 582.522 668.567 582.373 668.5 582.208C668.433 582.044 668.399 581.868 668.4 581.69V564.57C668.399 564.392 668.433 564.216 668.5 564.052C668.567 563.887 668.667 563.738 668.792 563.612C668.918 563.487 669.067 563.387 669.232 563.32C669.396 563.253 669.572 563.219 669.75 563.22H720C720.358 563.22 720.701 563.362 720.955 563.615C721.208 563.869 721.35 564.212 721.35 564.57L721.34 581.69ZM721.34 537.36C721.337 537.717 721.194 538.059 720.942 538.312C720.689 538.564 720.347 538.707 719.99 538.71H669.75C669.392 538.71 669.049 538.568 668.795 538.315C668.542 538.061 668.4 537.718 668.4 537.36V520.23C668.4 519.872 668.542 519.529 668.795 519.275C669.049 519.022 669.392 518.88 669.75 518.88H720C720.357 518.883 720.699 519.026 720.952 519.278C721.204 519.531 721.347 519.873 721.35 520.23L721.34 537.36ZM721.34 493.02C721.34 493.378 721.198 493.721 720.945 493.975C720.691 494.228 720.348 494.37 719.99 494.37H669.75C669.572 494.371 669.396 494.337 669.232 494.27C669.067 494.203 668.918 494.103 668.792 493.978C668.667 493.852 668.567 493.703 668.5 493.538C668.433 493.374 668.399 493.198 668.4 493.02V475.93C668.399 475.752 668.433 475.576 668.5 475.412C668.567 475.247 668.667 475.098 668.792 474.972C668.918 474.847 669.067 474.747 669.232 474.68C669.396 474.613 669.572 474.579 669.75 474.58H720C720.358 474.58 720.701 474.722 720.955 474.975C721.208 475.229 721.35 475.572 721.35 475.93L721.34 493.02ZM721.34 448.69C721.337 449.047 721.194 449.389 720.942 449.642C720.689 449.894 720.347 450.037 719.99 450.04H669.75C669.392 450.04 669.049 449.898 668.795 449.645C668.542 449.391 668.4 449.048 668.4 448.69V431.56C668.4 431.383 668.435 431.208 668.503 431.045C668.571 430.882 668.671 430.733 668.796 430.609C668.922 430.484 669.07 430.386 669.234 430.319C669.398 430.252 669.573 430.219 669.75 430.22H720C720.356 430.22 720.698 430.361 720.951 430.612C721.204 430.863 721.347 431.204 721.35 431.56L721.34 448.69ZM721.34 404.36C721.343 404.538 721.31 404.715 721.244 404.88C721.178 405.046 721.08 405.197 720.955 405.324C720.831 405.451 720.682 405.553 720.518 405.622C720.354 405.692 720.178 405.729 720 405.73H669.75C669.573 405.731 669.398 405.698 669.234 405.631C669.07 405.564 668.922 405.466 668.796 405.341C668.671 405.217 668.571 405.068 668.503 404.905C668.435 404.742 668.4 404.567 668.4 404.39V387.23C668.4 386.872 668.542 386.529 668.795 386.275C669.049 386.022 669.392 385.88 669.75 385.88H720C720.357 385.883 720.699 386.026 720.952 386.278C721.204 386.531 721.347 386.873 721.35 387.23L721.34 404.36ZM721.34 360.02C721.34 360.378 721.198 360.721 720.945 360.975C720.691 361.228 720.348 361.37 719.99 361.37H669.75C669.572 361.371 669.396 361.337 669.232 361.27C669.067 361.203 668.918 361.103 668.792 360.978C668.667 360.852 668.567 360.703 668.5 360.538C668.433 360.374 668.399 360.198 668.4 360.02V342.93C668.399 342.752 668.433 342.576 668.5 342.412C668.567 342.247 668.667 342.098 668.792 341.972C668.918 341.847 669.067 341.747 669.232 341.68C669.396 341.613 669.572 341.579 669.75 341.58H720C720.358 341.58 720.701 341.722 720.955 341.975C721.208 342.229 721.35 342.572 721.35 342.93L721.34 360.02Z" fill="#F50057"/>
<path opacity="0.1" d="M371 224.46C365.353 223.385 359.514 224.019 354.23 226.28C351.045 227.699 347.596 228.429 344.11 228.42C340.623 228.412 337.178 227.665 334 226.23C330.255 224.588 326.197 223.779 322.108 223.861C318.02 223.942 313.997 224.91 310.32 226.7C308.217 227.808 305.877 228.391 303.5 228.4C293.9 228.4 285.91 218.73 284.25 205.97C286.168 204.572 287.798 202.817 289.05 200.8C294.68 191.73 303.4 185.9 313.19 185.9C322.98 185.9 331.59 191.66 337.19 200.63C338.869 203.34 341.22 205.571 344.014 207.105C346.809 208.64 349.952 209.427 353.14 209.39H353.39C361.11 209.39 367.73 215.52 371 224.46Z" fill="#F50057"/>
<path opacity="0.1" d="M400.2 184.41L384.68 194.25L394.1 177.12C391.43 174.989 388.126 173.81 384.71 173.77H384.46C383.382 173.786 382.304 173.705 381.24 173.53L376 176.87L378.26 172.77C374.531 171.467 371.31 169.016 369.06 165.77L359.64 171.77L365.57 160.93C360.06 154.32 352.64 150.27 344.48 150.27C334.69 150.27 325.97 156.09 320.34 165.16C318.672 167.882 316.313 170.112 313.502 171.625C310.692 173.138 307.53 173.878 304.34 173.77H303.81C293 173.77 284.24 186.02 284.24 201.14C284.24 216.26 293 228.51 303.81 228.51C306.189 228.504 308.53 227.917 310.63 226.8C314.308 225.012 318.331 224.045 322.419 223.966C326.508 223.886 330.565 224.696 334.31 226.34C337.479 227.754 340.91 228.485 344.38 228.485C347.85 228.485 351.281 227.754 354.45 226.34C358.166 224.724 362.187 223.928 366.239 224.006C370.291 224.083 374.278 225.033 377.93 226.79C380.01 227.879 382.322 228.451 384.67 228.46C395.48 228.46 404.24 216.2 404.24 201.09C404.309 195.28 402.92 189.545 400.2 184.41V184.41Z" fill="#F50057"/>
<path opacity="0.1" d="M832 406.93C828.047 406.181 823.961 406.623 820.26 408.2C818.042 409.192 815.64 409.704 813.21 409.704C810.78 409.704 808.378 409.192 806.16 408.2C803.537 407.05 800.696 406.485 797.834 406.542C794.971 406.599 792.155 407.277 789.58 408.53C788.11 409.307 786.473 409.715 784.81 409.72C778.09 409.72 772.5 402.95 771.34 394.02C772.68 393.038 773.82 391.809 774.7 390.4C778.64 384.05 784.7 379.97 791.59 379.97C798.48 379.97 804.48 383.97 808.42 390.28C809.594 392.177 811.238 393.739 813.194 394.813C815.149 395.887 817.349 396.437 819.58 396.41H819.76C825.06 396.39 829.69 400.68 832 406.93Z" fill="#F50057"/>
<path opacity="0.1" d="M852.42 378.93L841.56 385.82L848.15 373.82C846.281 372.331 843.969 371.507 841.58 371.48H841.41C840.656 371.489 839.904 371.432 839.16 371.31L835.47 373.64L837.05 370.78C834.444 369.864 832.192 368.154 830.61 365.89L824 370.05L828.16 362.48C824.31 357.85 819.16 355.01 813.4 355.01C806.55 355.01 800.4 359.09 796.5 365.44C795.333 367.337 793.685 368.891 791.723 369.945C789.761 370.998 787.556 371.514 785.33 371.44H785C777.44 371.44 771.3 380.01 771.3 390.59C771.3 401.17 777.44 409.75 785 409.75C786.663 409.745 788.3 409.337 789.77 408.56C792.345 407.306 795.161 406.628 798.025 406.572C800.888 406.517 803.729 407.086 806.35 408.24C808.57 409.226 810.971 409.735 813.4 409.735C815.829 409.735 818.23 409.226 820.45 408.24C823.051 407.111 825.865 406.555 828.7 406.61C831.535 406.665 834.325 407.33 836.88 408.56C838.339 409.316 839.957 409.713 841.6 409.72C849.17 409.72 855.3 401.15 855.3 390.56C855.324 386.504 854.334 382.506 852.42 378.93V378.93Z" fill="#F50057"/>
<path opacity="0.1" d="M238.62 342.93C242.573 342.182 246.659 342.624 250.36 344.2C252.576 345.192 254.977 345.705 257.405 345.705C259.833 345.705 262.234 345.192 264.45 344.2C267.072 343.05 269.913 342.485 272.776 342.542C275.639 342.599 278.455 343.277 281.03 344.53C282.501 345.305 284.137 345.714 285.8 345.72C292.52 345.72 298.12 338.95 299.28 330.02C297.938 329.04 296.797 327.811 295.92 326.4C292 320.03 285.87 315.93 279 315.93C272.13 315.93 266.12 319.93 262.18 326.24C261.002 328.14 259.355 329.704 257.396 330.781C255.438 331.858 253.235 332.412 251 332.39H250.83C245.51 332.39 240.87 336.68 238.62 342.93Z" fill="#F50057"/>
<path opacity="0.1" d="M218.14 314.93L229 321.79L222.4 309.79C224.269 308.302 226.581 307.479 228.97 307.45H229.15C229.904 307.459 230.656 307.402 231.4 307.28L235.08 309.61L233.5 306.75C236.109 305.835 238.365 304.125 239.95 301.86L246.54 306.04L242.37 298.47C246.23 293.84 251.42 291 257.14 291C263.99 291 270.14 295.08 274.04 301.43C275.206 303.327 276.854 304.882 278.816 305.936C280.778 306.99 282.984 307.505 285.21 307.43H285.57C293.14 307.43 299.27 316 299.27 326.58C299.27 337.16 293.14 345.74 285.57 345.74C283.907 345.733 282.271 345.324 280.8 344.55C278.225 343.296 275.409 342.618 272.545 342.562C269.682 342.507 266.841 343.076 264.22 344.23C262.002 345.215 259.602 345.725 257.175 345.725C254.748 345.725 252.348 345.215 250.13 344.23C247.527 343.101 244.712 342.545 241.875 342.6C239.038 342.655 236.247 343.32 233.69 344.55C232.231 345.307 230.613 345.705 228.97 345.71C221.41 345.71 215.27 337.14 215.27 326.55C215.245 322.498 216.231 318.504 218.14 314.93V314.93Z" fill="#F50057"/>
<path d="M218.68 700.06C232.22 708.66 251.73 699.96 265.36 708.43C268.88 710.61 271.72 713.82 275.36 715.8C279.73 718.19 284.87 718.62 289.84 718.8C331.46 720.41 373.78 708.8 414.36 718.18C425.71 720.8 436.81 725.06 448.44 725.68C468.53 726.77 487.78 716.97 507.89 716.43C538.39 715.61 568.36 736.02 597.79 727.97C607.47 725.32 616.35 719.67 626.34 718.72C637.47 717.72 648.17 722.57 658.99 725.4C697.36 735.4 737.32 719.2 776.99 717.99C802.86 717.2 828.48 722.84 854.33 724.14C872.71 725.06 891.13 723.77 909.49 722.49C916.49 722 923.82 721.4 929.68 717.56C935.54 713.72 939.14 705.47 935.52 699.47L218.68 700.06Z" fill="#3F3D56"/>
<path opacity="0.1" d="M218.68 700.06C232.22 708.66 251.73 699.96 265.36 708.43C268.88 710.61 271.72 713.82 275.36 715.8C279.73 718.19 284.87 718.62 289.84 718.8C331.46 720.41 373.78 708.8 414.36 718.18C425.71 720.8 436.81 725.06 448.44 725.68C468.53 726.77 487.78 716.97 507.89 716.43C538.39 715.61 568.36 736.02 597.79 727.97C607.47 725.32 616.35 719.67 626.34 718.72C637.47 717.72 648.17 722.57 658.99 725.4C697.36 735.4 737.32 719.2 776.99 717.99C802.86 717.2 828.48 722.84 854.33 724.14C872.71 725.06 891.13 723.77 909.49 722.49C916.49 722 923.82 721.4 929.68 717.56C935.54 713.72 939.14 705.47 935.52 699.47L218.68 700.06Z" fill="black"/>
<path d="M218.68 695.06C232.22 703.66 251.73 694.96 265.36 703.43C268.88 705.61 271.72 708.82 275.36 710.8C279.73 713.19 284.87 713.62 289.84 713.8C331.46 715.41 373.78 703.8 414.36 713.18C425.71 715.8 436.81 720.06 448.44 720.68C468.53 721.77 487.78 711.97 507.89 711.43C538.39 710.61 568.36 731.02 597.79 722.97C607.47 720.32 616.35 714.67 626.34 713.72C637.47 712.72 648.17 717.57 658.99 720.4C697.36 730.4 737.32 714.2 776.99 712.99C802.86 712.2 828.48 717.84 854.33 719.14C872.71 720.06 891.13 718.77 909.49 717.49C916.49 717 923.82 716.4 929.68 712.56C935.54 708.72 939.14 700.47 935.52 694.47L218.68 695.06Z" fill="#3F3D56"/>
<g opacity="0.1">
<path opacity="0.1" d="M122.35 571.86C122.391 576.2 121.276 580.473 119.12 584.24C121.238 588.022 122.35 592.285 122.35 596.62C122.35 600.955 121.238 605.218 119.12 609C120.215 610.873 121.037 612.894 121.56 615C110.644 600.612 100.596 585.585 91.47 570V570C91.6898 566.283 92.7717 562.667 94.63 559.44C92.4736 555.673 91.3588 551.4 91.4 547.06C91.3872 544.127 91.8811 541.215 92.86 538.45C93.326 537.139 93.9188 535.876 94.63 534.68C97.45 529.89 101.89 526.8 106.87 526.8C111.85 526.8 116.3 529.89 119.12 534.68C119.806 535.842 120.385 537.063 120.85 538.33C121.853 541.131 122.361 544.085 122.35 547.06C122.391 551.4 121.276 555.673 119.12 559.44C121.283 563.219 122.398 567.506 122.35 571.86V571.86Z" fill="#3F3D56"/>
<path opacity="0.1" d="M106.87 542.61C115.414 542.61 122.34 533.539 122.34 522.35C122.34 511.161 115.414 502.09 106.87 502.09C98.3262 502.09 91.4 511.161 91.4 522.35C91.4 533.539 98.3262 542.61 106.87 542.61Z" fill="#3F3D56"/>
<path opacity="0.1" d="M106.87 517.85C115.414 517.85 122.34 508.779 122.34 497.59C122.34 486.401 115.414 477.33 106.87 477.33C98.3262 477.33 91.4 486.401 91.4 497.59C91.4 508.779 98.3262 517.85 106.87 517.85Z" fill="#3F3D56"/>
<path opacity="0.1" d="M180.67 373.93C180.696 390.559 175.103 406.708 164.8 419.76C172.647 429.737 177.8 441.562 179.767 454.102C181.733 466.642 180.447 479.476 176.031 491.376C171.615 503.277 164.217 513.843 154.546 522.065C144.875 530.286 133.256 535.887 120.8 538.33C119.02 538.69 117.21 538.97 115.38 539.19C109.735 539.865 104.032 539.895 98.38 539.28C96.5 539.08 94.6434 538.803 92.81 538.45C84.726 536.956 76.9508 534.113 69.81 530.04C56.5004 502.85 44.8751 474.867 35 446.25C37.598 436.626 42.1189 427.628 48.29 419.8C40.6614 410.109 35.5692 398.669 33.474 386.515C31.3787 374.361 32.3466 361.876 36.29 350.19L92.57 369.08L39.79 341.66C42.1145 336.864 44.9474 332.331 48.24 328.14C41.9455 320.14 37.3658 310.93 34.7866 301.083C32.2073 291.236 31.6836 280.964 33.2482 270.905C34.8128 260.847 38.4321 251.219 43.8806 242.621C49.329 234.023 56.4899 226.639 64.917 220.929C73.3441 215.22 82.8567 211.307 92.8622 209.434C102.868 207.562 113.152 207.77 123.073 210.047C132.994 212.323 142.341 216.618 150.53 222.664C158.718 228.71 165.574 236.378 170.67 245.19L116.26 285.19L175.26 254.59C179.032 263.961 180.852 274.003 180.608 284.101C180.364 294.2 178.061 304.143 173.84 313.32L129.84 312.99L170.5 319.67C168.774 322.626 166.846 325.459 164.73 328.15C175.047 341.18 180.663 357.31 180.67 373.93V373.93Z" fill="#F50057"/>
<path opacity="0.1" d="M180.67 465.63C180.667 482.807 174.701 499.45 163.791 512.716C152.881 525.983 137.703 535.05 120.85 538.37C119.07 538.73 117.26 539.01 115.43 539.23C109.785 539.905 104.082 539.935 98.43 539.32C96.55 539.12 94.6934 538.843 92.8601 538.49C84.776 536.996 77.0009 534.153 69.8601 530.08C56.5319 502.878 44.8899 474.882 35.0001 446.25C37.598 436.626 42.119 427.628 48.2901 419.8C37.9816 406.736 32.3892 390.572 32.42 373.93C32.42 365.61 174.74 407.15 164.8 419.76C175.112 432.822 180.705 448.988 180.67 465.63Z" fill="black"/>
</g>
<g opacity="0.1">
<path opacity="0.1" d="M1014.9 552.58C1012 561.84 1008.9 571.03 1005.72 580.01C1004.84 577.363 1004.39 574.59 1004.4 571.8C1004.4 562.87 1008.8 555.29 1014.9 552.58Z" fill="#3F3D56"/>
<path opacity="0.1" d="M1046 393.02C1046 410.57 1042.46 438.3 1036 470.02C1030.34 497.878 1023.28 525.433 1014.85 552.58C1011.95 561.84 1008.85 571.03 1005.67 580.01C1002.02 590.21 998.17 600.13 994.14 609.62C983.122 605.575 973.217 598.982 965.235 590.378C957.252 581.774 951.418 571.404 948.208 560.114C944.999 548.825 944.506 536.936 946.769 525.42C949.032 513.903 953.987 503.086 961.23 493.85C953.6 484.13 948.508 472.665 946.413 460.487C944.318 448.309 945.286 435.801 949.23 424.09L1005.51 443.02L952.73 415.54C955.054 410.734 957.887 406.192 961.18 401.99C954.15 393.027 949.272 382.568 946.922 371.422C944.572 360.275 944.814 348.738 947.627 337.7C950.441 326.661 955.751 316.416 963.15 307.754C970.548 299.092 979.837 292.245 990.3 287.74C1013.02 303.238 1030.12 325.662 1039.05 351.67L1029.3 358.93L1039.76 353.5C1043.27 364.282 1045.32 375.485 1045.85 386.81H1042.91L1045.91 387.3C1046 389.19 1046 391.09 1046 393.02Z" fill="#F50057"/>
<path opacity="0.1" d="M1036.05 470.02C1030.39 497.878 1023.33 525.433 1014.9 552.58C1012 561.84 1008.9 571.03 1005.72 580.01C1002.07 590.21 998.22 600.13 994.19 609.62C983.172 605.575 973.267 598.982 965.285 590.378C957.302 581.774 951.468 571.404 948.258 560.114C945.049 548.825 944.556 536.936 946.819 525.42C949.082 513.903 954.037 503.086 961.28 493.85C950.983 480.76 945.396 464.584 945.42 447.93C945.42 442.93 997.14 456.03 1036.05 470.02Z" fill="black"/>
</g>
<path opacity="0.1" d="M1045.87 387.28C1045.87 387.13 1045.87 386.97 1045.87 386.81C1045.34 375.485 1043.29 364.282 1039.78 353.5C1039.58 352.89 1039.38 352.27 1039.17 351.67C1030.24 325.662 1013.14 303.238 990.42 287.74C964.957 270.391 934.047 262.907 903.468 266.687C872.889 270.468 844.732 285.253 824.26 308.28C822.118 296.141 818.73 284.255 814.15 272.81C780.783 277.028 747.108 278.283 713.52 276.56C734.103 286.051 755.444 293.801 777.32 299.73L776.54 302.63C751.989 295.964 728.113 287.025 705.22 275.93L698.31 272.58L705.97 273.08C741.654 275.417 777.479 274.389 812.97 270.01C805.291 251.696 794.641 234.775 781.45 219.93C723.89 214.13 666.78 202.05 613.45 178.1L614.68 175.37C666.59 198.7 722.22 210.69 778.38 216.59C759.37 196.212 735.883 180.533 709.773 170.791C683.664 161.049 655.646 157.511 627.935 160.457C600.223 163.402 573.575 172.751 550.097 187.763C526.618 202.776 506.951 223.042 492.65 246.96C487.33 195.378 465.904 146.78 431.41 108.06C400.702 120.33 368.995 129.935 336.64 136.77C287.981 147.112 238.182 151.076 188.5 148.56C209.083 158.051 230.424 165.801 252.3 171.73L251.52 174.63C226.976 167.962 203.106 159.024 180.22 147.93L173.31 144.58L180.97 145.08C265.655 150.642 350.512 137.198 429.33 105.73C426.363 102.483 423.31 99.31 420.17 96.21C321.75 98.21 214.56 97.21 117.52 61.88C81.5608 84.0747 51.8823 115.106 31.311 152.017C10.7396 188.929 -0.039554 230.493 -1.36802e-05 272.75C-1.36802e-05 319.21 12.77 383.1 35 447.2C44.906 475.888 56.5646 503.941 69.91 531.2C76.7 545 83.91 558.41 91.48 571.25C100.607 586.834 110.655 601.861 121.57 616.25C123.53 618.83 125.513 621.363 127.52 623.85C138.706 638.007 151.26 651.027 165 662.72C167.78 665.04 170.577 667.25 173.39 669.35C180.931 675.05 188.962 680.07 197.39 684.35C212.06 691.7 227.2 696.01 242.69 696.63C243.93 696.68 245.18 696.71 246.42 696.71V697.22H918.42V696.71H918.92C922.793 696.695 926.635 696.019 930.28 694.71C954.04 686.28 975.92 652.43 994.11 609.65C998.11 600.16 1001.99 590.24 1005.64 580.04C1008.86 571.04 1011.92 561.87 1014.82 552.61C1023.25 525.463 1030.31 497.908 1035.97 470.05C1042.38 438.33 1045.97 410.6 1045.97 393.05C1046 391.09 1046 389.19 1045.87 387.28Z" fill="#F50057"/>
<path d="M547.34 221.52C567.084 221.52 583.09 205.514 583.09 185.77C583.09 166.026 567.084 150.02 547.34 150.02C527.596 150.02 511.59 166.026 511.59 185.77C511.59 205.514 527.596 221.52 547.34 221.52Z" fill="#3F3D56"/>
<path d="M526.6 463.87C530.29 489.76 525.79 516.16 518.78 541.35C517.47 546.04 516.06 550.77 513.61 554.98C511.16 559.19 507.75 562.81 504.87 566.77C498.87 575.03 495.35 584.77 492.06 594.41C482.99 621.084 475.372 648.231 469.24 675.73C468.871 676.857 468.871 678.073 469.24 679.2C470.11 681.2 472.75 681.46 474.92 681.45L502.98 681.3C503.98 679.38 502.13 677.3 500.98 675.46C496.98 669.24 500.82 661.16 504.35 654.65C512.929 638.839 519.571 622.051 524.13 604.65C526.05 597.32 527.61 589.83 530.73 582.92C534.5 574.54 540.41 567.33 545.21 559.49C550.79 550.38 554.86 540.49 558.9 530.56C564.54 516.78 570.23 502.83 572.45 488.11C574.54 474.29 573.51 460.21 572.15 446.3C572.213 445.886 572.177 445.463 572.045 445.066C571.912 444.669 571.687 444.309 571.388 444.016C571.09 443.723 570.725 443.505 570.326 443.381C569.926 443.256 569.502 443.229 569.09 443.3L531.44 441.36C523.68 440.96 521.84 439.26 523.02 446.88C523.84 452.57 525.78 458.11 526.6 463.87Z" fill="#3F3D56"/>
<path opacity="0.1" d="M526.6 463.87C530.29 489.76 525.79 516.16 518.78 541.35C517.47 546.04 516.06 550.77 513.61 554.98C511.16 559.19 507.75 562.81 504.87 566.77C498.87 575.03 495.35 584.77 492.06 594.41C482.99 621.084 475.372 648.231 469.24 675.73C468.871 676.857 468.871 678.073 469.24 679.2C470.11 681.2 472.75 681.46 474.92 681.45L502.98 681.3C503.98 679.38 502.13 677.3 500.98 675.46C496.98 669.24 500.82 661.16 504.35 654.65C512.929 638.839 519.571 622.051 524.13 604.65C526.05 597.32 527.61 589.83 530.73 582.92C534.5 574.54 540.41 567.33 545.21 559.49C550.79 550.38 554.86 540.49 558.9 530.56C564.54 516.78 570.23 502.83 572.45 488.11C574.54 474.29 573.51 460.21 572.15 446.3C572.213 445.886 572.177 445.463 572.045 445.066C571.912 444.669 571.687 444.309 571.388 444.016C571.09 443.723 570.725 443.505 570.326 443.381C569.926 443.256 569.502 443.229 569.09 443.3L531.44 441.36C523.68 440.96 521.84 439.26 523.02 446.88C523.84 452.57 525.78 458.11 526.6 463.87Z" fill="black"/>
<path d="M534 400.93C526.35 411.93 518.33 424.59 520.87 437.76C522.8 447.76 530.42 455.51 537.61 462.76C566.35 491.62 594.61 523.68 604.39 563.23C606.91 573.45 608.13 583.94 610.3 594.23C614.24 612.93 621.3 630.81 628.3 648.58L647.06 695.93C652.878 696.073 658.6 694.422 663.448 691.202C668.296 687.982 672.036 683.348 674.16 677.93C671.7 677.74 668.49 675.36 667.05 673.36C659.05 662.29 657.41 648.05 655.36 634.55C653.09 619.63 650.06 604.83 647.02 590.04L633.58 524.6C632.03 517.05 630.48 509.49 628.46 502.05C620.64 473.23 605.82 446.05 603.53 416.25C603.19 411.87 602.98 407.06 600.01 403.81C596.89 400.38 591.77 399.81 587.14 399.54C568.41 398.34 552.25 396.51 534 400.93Z" fill="#3F3D56"/>
<path d="M483.47 675.06C481.43 674.576 479.346 674.308 477.25 674.26C475.242 674.331 473.277 674.87 471.514 675.833C469.75 676.797 468.235 678.158 467.09 679.81C465.922 681.682 465.004 683.699 464.36 685.81L461.65 693.59C460.85 695.87 460.07 698.5 461.26 700.59C462.145 701.888 463.42 702.872 464.9 703.4C471.46 706.32 478.9 706.48 486 707.18C492.94 707.86 499.82 709.08 506.67 710.36C509.03 710.81 511.38 711.26 513.77 711.5C519.11 712.04 524.49 711.5 529.83 711.02L535.34 710.49C537.184 710.41 539.009 710.074 540.76 709.49C541.635 709.193 542.44 708.722 543.128 708.105C543.816 707.488 544.371 706.738 544.76 705.9C546.12 702.53 543.2 698.54 539.63 697.84C538.18 697.56 536.63 697.69 535.21 697.5C533.544 697.214 531.919 696.727 530.37 696.05C523.37 693.28 516.2 690.48 510 686.12C508.28 684.91 506.48 683.22 506.67 681.12C506.849 680.221 507.148 679.349 507.56 678.53C508.401 676.384 508.429 674.005 507.64 671.84C507.3 670.92 506.64 669.95 505.71 669.84C503.07 669.52 503.39 673.37 503 674.84C502.47 676.84 501.51 677.02 499.63 676.84C494.23 676.35 488.83 676.08 483.47 675.06Z" fill="#F2F2F2"/>
<path d="M641.34 701.93C641.388 705.837 642.732 709.618 645.16 712.68C645.902 713.593 646.829 714.34 647.88 714.87C649.462 715.521 651.174 715.792 652.88 715.66C657.64 715.556 662.344 714.605 666.77 712.85C668.329 712.144 669.933 711.539 671.57 711.04C673.631 710.618 675.714 710.318 677.81 710.14C686.08 708.95 693.34 704.07 701.33 701.6C703.717 701.008 706.057 700.24 708.33 699.3C711.49 697.81 714.05 695.3 716.56 692.87C718.04 691.558 719.314 690.031 720.34 688.34C721.81 685.61 721.9 682.34 721.96 679.25C722.014 678.767 721.931 678.278 721.72 677.84C721.492 677.524 721.18 677.279 720.82 677.13C718.39 675.93 715.51 676.53 712.82 677C703.1 678.73 693.15 678.41 683.28 678.09C682.344 678.219 681.391 678.035 680.57 677.566C679.749 677.098 679.106 676.372 678.74 675.5L674.99 669.5C673.92 667.78 672.22 665.81 670.28 666.4C668.73 666.87 668.1 668.77 668.16 670.4C668.22 672.03 668.72 673.65 668.41 675.24C668.189 676.115 667.791 676.936 667.241 677.651C666.69 678.367 665.999 678.962 665.21 679.4C663.635 680.256 661.954 680.902 660.21 681.32C654.69 682.88 648.27 684.65 644 688.71C640.86 691.59 641.15 698.04 641.34 701.93Z" fill="#F2F2F2"/>
<path d="M639.4 305.19C641.553 303.545 643.401 301.534 644.86 299.25C646.117 296.673 646.906 293.893 647.19 291.04L648.76 281.12C649.63 275.65 650.65 269.86 654.3 265.69C657.95 261.52 665.22 260.03 668.93 264.15C670.55 265.94 671.19 268.4 671.59 270.79C672.731 277.917 672.261 285.209 670.216 292.13C668.171 299.052 664.601 305.428 659.77 310.79C655.28 315.71 649.77 319.62 645.02 324.27C640.88 328.27 637.29 332.86 633.47 337.21C624.232 347.718 613.651 356.964 602 364.71C602.14 357.27 603.09 349.29 602 341.9C601.19 336.56 599 333.68 604.17 330.19C616.17 322.03 628.28 314.65 639.4 305.19Z" fill="#FBBEBE"/>
<path d="M538.56 232.01C538.17 237.33 535.96 242.77 531.56 245.84C544.02 250.2 556.31 255.007 568.43 260.26C566.09 258.01 565.38 254.56 565.27 251.32C564.96 242.85 567.89 234.52 572.17 227.22C572.851 226.294 573.244 225.188 573.3 224.04C573.16 221.68 570.36 220.59 568.06 220.04C560.213 218.136 552.204 216.975 544.14 216.57C540.69 216.46 536.6 215.37 537.38 219.76C538.12 223.86 538.87 227.86 538.56 232.01Z" fill="#FBBEBE"/>
<path d="M562.66 234.86C578.803 234.86 591.89 221.773 591.89 205.63C591.89 189.487 578.803 176.4 562.66 176.4C546.517 176.4 533.43 189.487 533.43 205.63C533.43 221.773 546.517 234.86 562.66 234.86Z" fill="#FBBEBE"/>
<path d="M591.6 284.58C590.579 282.385 589.336 280.301 587.89 278.36C582.59 270.75 577.15 263.15 570.35 256.85C565.199 252.256 559.624 248.161 553.7 244.62C550.504 242.429 546.989 240.743 543.28 239.62C541.079 239.132 538.841 238.828 536.59 238.71L529 238.09C528.334 238.002 527.659 238.022 527 238.15C524.94 238.67 524 241.23 524.44 243.3C524.88 245.37 526.44 247.05 527.82 248.62C528.16 264.11 521.27 279.39 520.34 294.86C518.71 321.91 535.22 347.07 536.54 374.14C536.676 375.363 536.546 376.601 536.16 377.77C535.94 378.33 535.61 378.84 535.36 379.39C534.58 381.09 534.61 383.02 534.47 384.89C533.925 391.559 531.005 397.812 526.24 402.51C527.478 404.047 529.07 405.262 530.88 406.05C534.07 407.44 537.88 407.56 541.27 408.53C550.11 411.11 559.17 413.71 568.36 413.16C569.502 410.676 570.209 408.014 570.45 405.29C571.75 404.48 573.25 406.21 573.45 407.73C573.65 409.25 573.36 411.02 574.45 412.12C575.54 413.22 576.92 413.05 578.25 412.88C583.86 412.17 589.25 410.28 594.75 409.01C600.25 407.74 606.13 407.13 611.48 408.95C612.56 407.58 612.1 405.55 611.22 404.05C610.34 402.55 609.09 401.23 608.59 399.56C608.338 398.598 608.231 397.604 608.27 396.61C608.27 388.06 610.03 379.42 608.36 371.03C607.87 368.57 607.09 366.17 606.59 363.7C605.59 358.91 605.74 353.97 605.87 349.08C606 344.19 605.41 338.9 605.31 333.94C605.307 331.89 605.173 329.843 604.91 327.81C604.57 325.68 603.91 323.6 603.73 321.45C603.19 315.99 605.39 310.57 605.06 305.09C604.51 296.77 594.84 292.25 591.6 284.58Z" fill="#9C050E"/>
<path d="M525.63 280.66C518.55 299.44 515.09 319.36 511.63 339.14L503.63 385.6C501.36 398.73 499.08 411.94 499.17 425.26C499.17 429 499.41 432.81 498.43 436.42C497.15 441.16 493.97 445.11 491.56 449.42C486.67 458.222 485.041 468.466 486.96 478.35C487.78 482.5 490.02 487.21 494.23 487.69C497.69 488.07 500.68 485.32 502.7 482.48C507.34 475.97 509.64 468.11 511.7 460.37C518.332 435.075 522.969 409.3 525.57 383.28C525.817 379.986 526.282 376.713 526.96 373.48C527.843 370.147 528.973 366.885 530.34 363.72C533.4 356.133 536.463 348.547 539.53 340.96C546.6 323.43 553.71 305.82 563.42 289.6C553.82 286.84 543.83 283.6 534.23 280.87C531.46 280.05 528.49 280.54 525.63 280.66Z" fill="#FBBEBE"/>
<path d="M542.27 294.93C535.55 293.48 528.6 293.93 521.74 293.76C520.766 293.831 519.795 293.578 518.98 293.04C517.59 291.85 518.18 289.62 518.88 287.93L522.2 279.93C522.745 278.276 523.654 276.766 524.86 275.51C526.55 274.01 528.93 273.64 531.17 273.37C538.46 272.53 545.96 272.25 553.03 274.22C560.1 276.19 566.75 280.67 569.91 287.3C571.23 290.06 571.84 293.54 570.09 296.05C567.49 299.78 561.66 303.95 557.31 301.91C552.1 299.44 548.11 296.17 542.27 294.93Z" fill="#9C050E"/>
<path d="M578 160.23C572.224 160.168 566.556 161.802 561.7 164.93C557.102 160.573 551.429 157.516 545.262 156.072C539.095 154.628 532.654 154.848 526.6 156.71C525.957 153.023 524.315 149.584 521.851 146.767C519.387 143.95 516.197 141.864 512.628 140.737C509.059 139.609 505.25 139.484 501.615 140.374C497.98 141.264 494.659 143.135 492.015 145.783C489.371 148.432 487.505 151.756 486.621 155.392C485.737 159.029 485.869 162.838 487.003 166.405C488.136 169.972 490.228 173.158 493.049 175.618C495.87 178.077 499.312 179.714 503 180.35C501.681 184.856 501.262 189.577 501.768 194.244C502.273 198.912 503.693 203.434 505.946 207.553C508.2 211.672 511.242 215.306 514.9 218.249C518.558 221.192 522.759 223.386 527.265 224.705C531.771 226.024 536.492 226.443 541.159 225.937C545.827 225.432 550.349 224.012 554.468 221.759C558.587 219.506 562.221 216.463 565.164 212.805C568.107 209.147 570.301 204.946 571.62 200.44C573.729 200.872 575.877 201.09 578.03 201.09C592.13 201.09 603.57 191.94 603.57 180.66C603.57 169.38 592.08 160.23 578 160.23Z" fill="#3F3D56"/>
<path opacity="0.1" d="M583.09 190.87C580.937 190.876 578.788 190.658 576.68 190.22C575.678 193.878 574.099 197.351 572 200.51C573.977 200.891 575.986 201.085 578 201.09C591.18 201.09 602 193.09 603.39 182.85C598.7 187.73 591.35 190.87 583.09 190.87Z" fill="black"/>
<path opacity="0.1" d="M542.23 216.41C536.636 216.402 531.122 215.083 526.13 212.56C521.138 210.036 516.807 206.378 513.484 201.878C510.161 197.379 507.939 192.163 506.995 186.65C506.051 181.136 506.413 175.479 508.05 170.13C503.318 169.298 499.031 166.824 495.942 163.145C492.854 159.465 491.16 154.814 491.16 150.01C491.158 148.782 491.268 147.557 491.49 146.35C488.996 149.045 487.274 152.362 486.505 155.952C485.737 159.543 485.95 163.274 487.123 166.753C488.296 170.233 490.385 173.332 493.17 175.724C495.955 178.117 499.334 179.715 502.95 180.35C500.197 189.39 501.135 199.152 505.559 207.502C509.983 215.853 517.533 222.112 526.559 224.911C535.585 227.71 545.352 226.822 553.724 222.441C562.097 218.059 568.395 210.541 571.24 201.53C567.935 206.137 563.579 209.89 558.534 212.477C553.489 215.065 547.9 216.413 542.23 216.41V216.41Z" fill="black"/>
<path d="M672.642 276.685C672.751 276.532 672.717 276.321 672.566 276.213C672.416 276.106 672.205 276.143 672.096 276.295L669.273 280.251C669.164 280.404 669.198 280.615 669.349 280.723C669.499 280.83 669.71 280.794 669.819 280.641L672.642 276.685Z" fill="#3A3768"/>
<path d="M656.838 259.885C656.898 259.8 656.879 259.681 656.793 259.62C656.708 259.559 656.589 259.579 656.528 259.664L655.692 260.836C655.631 260.922 655.651 261.041 655.736 261.101C655.821 261.162 655.94 261.143 656.001 261.057L656.838 259.885Z" fill="#3A3768"/>
<path d="M654.895 262.646C654.963 262.552 654.941 262.42 654.846 262.353C654.752 262.286 654.621 262.308 654.553 262.402L652.956 264.641C652.889 264.735 652.911 264.866 653.005 264.933C653.099 265.001 653.231 264.979 653.298 264.885L654.895 262.646Z" fill="#3A3768"/>
<path d="M652.415 266.118C652.479 266.029 652.458 265.904 652.368 265.84C652.278 265.775 652.153 265.796 652.089 265.886L650.463 268.165C650.399 268.255 650.419 268.38 650.509 268.444C650.599 268.508 650.724 268.488 650.788 268.398L652.415 266.118Z" fill="#3A3768"/>
<path d="M677.488 268.192L663.292 258.062C662.159 257.254 660.585 257.517 659.777 258.65L636.166 291.74C635.357 292.873 635.62 294.446 636.753 295.255L650.949 305.385C652.082 306.193 653.656 305.93 654.465 304.797L678.076 271.707C678.884 270.574 678.621 269.001 677.488 268.192Z" fill="#3A3768"/>
<path opacity="0.1" d="M677.488 268.192L663.292 258.062C662.159 257.254 660.585 257.517 659.777 258.65L636.166 291.74C635.357 292.873 635.62 294.446 636.753 295.255L650.949 305.385C652.082 306.193 653.656 305.93 654.465 304.797L678.076 271.707C678.884 270.574 678.621 269.001 677.488 268.192Z" fill="black"/>
<path d="M676.562 266.328L662.365 256.198C661.232 255.39 659.659 255.653 658.85 256.786L635.239 289.875C634.43 291.008 634.694 292.582 635.826 293.39L650.023 303.52C651.156 304.329 652.73 304.066 653.538 302.933L677.149 269.843C677.958 268.71 677.695 267.136 676.562 266.328Z" fill="#3A3768"/>
<path d="M675.28 266.93L673.19 265.43L673.01 265.68C672.787 265.986 672.454 266.194 672.081 266.26C671.708 266.325 671.324 266.243 671.01 266.03L664.33 261.26C664.013 261.033 663.799 260.69 663.736 260.305C663.672 259.921 663.763 259.527 663.99 259.21L664.17 258.96L662.17 257.56C661.98 257.423 661.764 257.325 661.536 257.271C661.308 257.217 661.071 257.209 660.84 257.247C660.608 257.286 660.387 257.369 660.188 257.493C659.989 257.617 659.816 257.779 659.68 257.97L636.6 290.32C636.326 290.705 636.215 291.183 636.292 291.65C636.368 292.116 636.627 292.533 637.01 292.81L650.15 302.18C650.341 302.317 650.557 302.414 650.785 302.467C651.014 302.52 651.251 302.527 651.482 302.488C651.714 302.449 651.935 302.365 652.134 302.24C652.333 302.115 652.505 301.952 652.64 301.76L675.72 269.42C675.856 269.228 675.952 269.011 676.003 268.782C676.055 268.552 676.06 268.315 676.019 268.083C675.978 267.852 675.892 267.631 675.765 267.433C675.638 267.235 675.473 267.064 675.28 266.93V266.93Z" fill="#9C050E"/>
<path d="M669.195 262.761L667.16 261.309C667.016 261.206 666.817 261.239 666.714 261.383C666.611 261.527 666.645 261.727 666.789 261.83L668.824 263.282C668.967 263.384 669.167 263.351 669.27 263.207C669.373 263.063 669.339 262.863 669.195 262.761Z" fill="#E6E8EC"/>
<path d="M669.9 264.08C670.099 264.08 670.26 263.919 670.26 263.72C670.26 263.521 670.099 263.36 669.9 263.36C669.701 263.36 669.54 263.521 669.54 263.72C669.54 263.919 669.701 264.08 669.9 264.08Z" fill="#E6E8EC"/>
<path d="M670 13.93C652.23 13.93 635.189 20.9889 622.624 33.5538C610.059 46.1188 603 63.1605 603 80.93C603 117.93 673.2 240.47 673.2 240.47C673.2 240.47 737 117.98 737 80.93C737 63.1605 729.941 46.1188 717.376 33.5538C704.811 20.9889 687.77 13.93 670 13.93V13.93ZM670 125.61C663.058 125.61 656.272 123.551 650.5 119.695C644.727 115.838 640.228 110.356 637.572 103.942C634.915 97.5285 634.22 90.4711 635.574 83.6623C636.929 76.8536 640.272 70.5994 645.181 65.6906C650.089 60.7817 656.344 57.4388 663.152 56.0844C669.961 54.7301 677.019 55.4252 683.432 58.0818C689.846 60.7385 695.328 65.2373 699.185 71.0095C703.041 76.7816 705.1 83.5679 705.1 90.51C705.105 95.1223 704.201 99.6904 702.439 103.953C700.678 108.216 698.093 112.089 694.833 115.352C691.573 118.615 687.702 121.203 683.441 122.968C679.18 124.733 674.612 125.641 670 125.64V125.61Z" fill="#9C050E"/>
<path opacity="0.1" d="M670 13.93C652.23 13.93 635.189 20.9889 622.624 33.5538C610.059 46.1188 603 63.1605 603 80.93C603 117.93 673.2 240.47 673.2 240.47C673.2 240.47 737 117.98 737 80.93C737 63.1605 729.941 46.1188 717.376 33.5538C704.811 20.9889 687.77 13.93 670 13.93V13.93ZM670 125.61C663.058 125.61 656.272 123.551 650.5 119.695C644.727 115.838 640.228 110.356 637.572 103.942C634.915 97.5285 634.22 90.4711 635.574 83.6623C636.929 76.8536 640.272 70.5994 645.181 65.6906C650.089 60.7817 656.344 57.4388 663.152 56.0844C669.961 54.7301 677.019 55.4252 683.432 58.0818C689.846 60.7385 695.328 65.2373 699.185 71.0095C703.041 76.7816 705.1 83.5679 705.1 90.51C705.105 95.1223 704.201 99.6904 702.439 103.953C700.678 108.216 698.093 112.089 694.833 115.352C691.573 118.615 687.702 121.203 683.441 122.968C679.18 124.733 674.612 125.641 670 125.64V125.61Z" fill="black"/>
<path d="M670 0C652.23 0 635.189 7.05891 622.624 19.6238C610.059 32.1888 603 49.2305 603 67C603 104 673.2 240.5 673.2 240.5C673.2 240.5 737 104.02 737 67.01C737.001 58.2106 735.269 49.4971 731.903 41.3671C728.536 33.2372 723.601 25.85 717.38 19.6274C711.158 13.4048 703.772 8.46872 695.642 5.10103C687.513 1.73334 678.799 -9.80108e-08 670 0V0ZM670 111.68C663.058 111.68 656.272 109.621 650.5 105.765C644.727 101.908 640.228 96.4259 637.572 90.0122C634.915 83.5985 634.22 76.5411 635.574 69.7323C636.929 62.9236 640.272 56.6694 645.181 51.7606C650.089 46.8517 656.344 43.5088 663.152 42.1544C669.961 40.8001 677.019 41.4952 683.432 44.1518C689.846 46.8085 695.328 51.3073 699.185 57.0795C703.041 62.8517 705.1 69.6379 705.1 76.58C705.1 81.1894 704.192 85.7537 702.428 90.0122C700.664 94.2707 698.079 98.1401 694.819 101.399C691.56 104.659 687.691 107.244 683.432 109.008C679.174 110.772 674.609 111.68 670 111.68Z" fill="#9C050E"/>
</g>
<defs>
<clipPath id="clip0">
<rect width="1046" height="729.87" fill="white"/>
</clipPath>
</defs>
</svg>
