<svg width="738" height="464" viewBox="0 0 738 464" fill="none" xmlns="http://www.w3.org/2000/svg">
<g clip-path="url(#clip0)">
<path d="M276.154 194.193C276.154 194.193 336.665 197.108 340.31 218.245C343.955 239.382 269.593 220.432 269.593 220.432L276.154 194.193Z" fill="#A0616A"/>
<path d="M180.651 127.138C180.651 127.138 190.857 130.053 198.876 147.546C206.896 165.038 222.935 181.073 222.935 181.073L287.819 193.464L276.884 226.262L214.915 218.245L176.276 196.379L180.651 127.138Z" fill="#A4243B"/>
<path d="M608.17 93.6285L531.622 94.0444L531.63 95.5021L608.178 95.0862L608.17 93.6285Z" fill="#3F3D56"/>
<path d="M471.842 94.3692L229.076 95.688L229.084 97.1457L471.85 95.8268L471.842 94.3692Z" fill="#3F3D56"/>
<path d="M84.4175 93.6101L90.9788 135.155L136.179 137.342L131.076 76.1175L84.4175 93.6101Z" fill="#A0616A"/>
<path d="M36.6656 370.941L34.4785 462.777H103.008L113.215 426.334L121.234 462.777H192.68C192.68 462.777 194.138 357.821 186.118 357.092C178.099 356.363 36.6656 370.941 36.6656 370.941Z" fill="#2F2E41"/>
<path d="M98.9983 104.543C120.741 104.543 138.366 86.9219 138.366 65.1849C138.366 43.4479 120.741 25.8266 98.9983 25.8266C77.2559 25.8266 59.6302 43.4479 59.6302 65.1849C59.6302 86.9219 77.2559 104.543 98.9983 104.543Z" fill="#A0616A"/>
<path d="M32.6558 374.949L53.0689 274.367L26.0945 140.986L88.219 117.68L118.682 114.018L133.997 111.16L144.928 114.018C144.928 114.018 188.67 124.951 190.857 132.969C193.044 140.986 182.109 206.583 182.109 206.583L171.902 260.519L194.502 357.457C194.502 357.457 100.456 389.527 34.1139 374.949H32.6558Z" fill="#A4243B"/>
<path opacity="0.1" d="M59.9948 177.793V204.761L146.015 204.878L64.369 196.015L59.9948 177.793Z" fill="black"/>
<path opacity="0.1" d="M52.6066 252.272L160.602 236.831L52.6066 267.411V252.272Z" fill="black"/>
<path opacity="0.1" d="M224.028 181.437L212.45 223.146L232.048 182.814L224.028 181.437Z" fill="black"/>
<path d="M131.397 25.7126L138.637 22.815C138.637 22.815 123.5 6.15431 102.44 7.60314L108.363 1.08364C108.363 1.08364 93.8842 -4.71134 80.7217 10.5006C73.8024 18.4971 65.7967 27.8967 60.806 38.4852H53.0531L56.2889 45.6082L44.9637 52.7313L56.5879 51.4518C55.8952 55.3525 55.7889 59.3347 56.2724 63.2667C56.7711 67.2 58.7788 70.7857 61.8717 73.2671V73.2671C61.8717 73.2671 70.8499 54.6877 70.8499 51.7902V59.034C70.8499 59.034 78.0893 52.5146 78.0893 48.1683L82.038 53.239L84.0124 45.2708L108.363 53.239L104.414 46.7196L119.551 48.8927L113.628 40.9245C113.628 40.9245 130.739 50.3415 131.397 58.3097C132.055 66.2778 137.064 73.8281 137.064 73.8281C137.064 73.8281 150.483 36.5782 131.397 25.7126Z" fill="#2F2E41"/>
<path d="M450.03 171.234H170.079V463.506H450.03V171.234Z" fill="#D7DAE1"/>
<path d="M406.288 235.373H199.241V264.527H406.288V235.373Z" fill="#9C050E"/>
<path d="M370.432 312.632H234.835V327.209H370.432V312.632Z" fill="#9C050E"/>
<path d="M370.694 338.142H235.097V352.719H370.694V338.142Z" fill="#9C050E"/>
<path d="M303.157 363.652H235.359V378.229H303.157V363.652Z" fill="#9C050E"/>
<path d="M409.933 437.267H378.584V451.844H409.933V437.267Z" fill="#9C050E"/>
<path d="M150.031 208.041C150.031 208.041 213.457 198.566 222.935 212.414C232.412 226.262 155.863 233.551 155.863 233.551L150.031 208.041Z" fill="#A0616A"/>
<path d="M33.3849 140.257H28.8168C26.938 140.252 25.1267 140.957 23.7458 142.23C19.4095 146.256 10.2406 156.643 6.41047 175.242C1.30721 200.024 -7.44125 248.128 12.2428 251.772C31.9268 255.417 160.966 237.924 160.966 237.924L151.489 204.397L58.1722 205.126C58.1722 205.126 59.6302 189.091 56.7141 178.887C53.7979 168.683 33.3849 140.257 33.3849 140.257Z" fill="#A4243B"/>
<path d="M229.242 126.3C245.75 126.21 259.06 112.758 258.97 96.2545C258.88 79.7507 245.425 66.4444 228.917 66.5341C212.41 66.6238 199.1 80.0755 199.19 96.5792C199.279 113.083 212.734 126.389 229.242 126.3Z" fill="#D7DAE1"/>
<path d="M365.57 125.559C382.078 125.469 395.388 112.018 395.298 95.5139C395.208 79.0101 381.753 65.7038 365.246 65.7935C348.738 65.8832 335.428 79.3349 335.518 95.8386C335.608 112.342 349.063 125.649 365.57 125.559Z" fill="#A4243B"/>
<path d="M501.902 125.547C495.847 125.58 489.917 123.817 484.863 120.481C479.81 117.144 475.859 112.385 473.511 106.804C471.163 101.223 470.524 95.0712 471.673 89.1267C472.822 83.1822 475.709 77.7119 479.967 73.4076C484.226 69.1032 489.666 66.1581 495.599 64.9447C501.532 63.7313 507.692 64.304 513.3 66.5905C518.907 68.8771 523.711 72.7747 527.102 77.7904C530.494 82.8062 532.322 88.7149 532.355 94.7693C532.39 102.885 529.204 110.684 523.494 116.454C517.785 122.224 510.02 125.494 501.902 125.547V125.547ZM501.578 65.7817C495.81 65.8131 490.181 67.5535 485.403 70.7831C480.625 74.0126 476.912 78.5861 474.734 83.9253C472.556 89.2644 472.01 95.1294 473.166 100.779C474.322 106.428 477.128 111.607 481.228 115.663C485.328 119.718 490.54 122.466 496.202 123.56C501.865 124.654 507.725 124.045 513.042 121.81C518.358 119.574 522.892 115.813 526.071 111.001C529.249 106.189 530.928 100.543 530.897 94.7772C530.846 87.0478 527.731 79.6542 522.234 74.2184C516.738 68.7826 509.309 65.7485 501.578 65.7817Z" fill="#3F3D56"/>
<path d="M638.23 124.807C632.175 124.839 626.245 123.076 621.191 119.74C616.138 116.404 612.187 111.644 609.839 106.063C607.492 100.482 606.852 94.3306 608.001 88.3861C609.15 82.4416 612.037 76.9713 616.295 72.667C620.554 68.3626 625.994 65.4175 631.927 64.2041C637.861 62.9907 644.02 63.5634 649.628 65.8499C655.235 68.1365 660.039 72.0341 663.431 77.0498C666.822 82.0656 668.65 87.9743 668.683 94.0287C668.718 102.145 665.532 109.943 659.823 115.713C654.114 121.483 646.348 124.753 638.23 124.807V124.807ZM637.906 65.0411C632.138 65.0725 626.509 66.8129 621.731 70.0425C616.953 73.272 613.24 77.8455 611.062 83.1847C608.884 88.5238 608.338 94.3888 609.494 100.038C610.65 105.687 613.456 110.867 617.556 114.922C621.657 118.977 626.868 121.725 632.53 122.82C638.193 123.914 644.053 123.305 649.37 121.069C654.686 118.834 659.22 115.072 662.399 110.26C665.577 105.449 667.257 99.8027 667.225 94.0366C667.174 86.3072 664.059 78.9136 658.562 73.4778C653.066 68.042 645.637 65.0079 637.906 65.0411Z" fill="#3F3D56"/>
<path d="M225.028 109.152L211.981 91.957L216.628 88.4324L225.611 100.271L266.388 59.0599L270.534 63.1598L225.028 109.152Z" fill="#A4243B"/>
<path d="M607.354 461.972H12.026V464H607.354V461.972Z" fill="#3F3D56"/>
</g>
<defs>
<clipPath id="clip0">
<rect width="738" height="464" fill="white"/>
</clipPath>
</defs>
</svg>
