<svg width="442" height="358" viewBox="0 0 442 358" fill="none" xmlns="http://www.w3.org/2000/svg">
<path d="M362.55 338.52C259.271 332.812 155.759 332.718 52.47 338.24C35.02 339.17 17.26 340.33 0.960022 346.64C8.96002 353.95 20.86 354.53 31.7 354.71C111.133 355.99 190.573 356.343 270.02 355.77C274.68 355.77 281.12 353.7 280.2 349.12C279.92 347.74 278.91 346.5 278.99 345.12C279.14 342.57 282.4 341.65 284.99 341.53C291.883 341.174 298.794 341.542 305.61 342.63C308.08 343.04 310.72 343.63 312.35 345.53C313.63 347.01 314.06 349.02 314.99 350.73C318.05 356.32 325.69 357.54 331.99 356.31C338.29 355.08 344.15 352.11 350.52 351.79C356.13 351.5 361.61 353.31 367.09 354.58C385 358.72 403.67 357.19 421.98 355.64C440.98 354.03 441.38 340.9 422.44 339.85C402.56 338.78 382.47 339.63 362.55 338.52Z" fill="url(#paint0_linear)"/>
<path d="M433.29 202.37L424.72 155.57H436.49C436.49 155.57 439.19 193.01 440.49 203.16L433.29 202.37Z" fill="#F5C7C8"/>
<path d="M439.89 199.8C439.89 199.8 441.54 207.1 440.57 211.17C439.6 215.24 435.57 219.98 433.29 220.26C431.01 220.54 429.61 219.42 429.78 217.87C429.95 216.32 435.78 210.81 434.88 209.06C433.98 207.31 431.68 212.63 430.88 211.34C430.08 210.05 430.42 208.05 432.43 205.52C434.44 202.99 432.43 199.46 432.43 199.46C432.43 199.46 438.47 196.78 439.89 199.8Z" fill="#F5C7C8"/>
<path d="M416.92 58.55C419.37 56.74 424.35 57.36 426.82 58.35C428.602 59.077 430.193 60.2034 431.471 61.6424C432.749 63.0814 433.679 64.7946 434.19 66.65C434.635 68.3896 434.763 70.1949 434.57 71.98C434.21 75.91 432.52 79.88 429.33 82.22C422.65 87.1 418.53 82.57 416.55 76.48C415.288 73.0355 414.883 69.3358 415.37 65.7C415.73 62.95 414.47 60.78 416.6 58.81L416.92 58.55Z" fill="#606161"/>
<path d="M416.92 58.55C419.37 56.74 424.35 57.36 426.82 58.35C428.602 59.077 430.193 60.2034 431.471 61.6424C432.749 63.0814 433.679 64.7946 434.19 66.65C434.635 68.3896 434.763 70.1949 434.57 71.98C434.21 75.91 432.52 79.88 429.33 82.22C422.65 87.1 418.53 82.57 416.55 76.48C415.288 73.0355 414.883 69.3358 415.37 65.7C415.73 62.95 414.47 60.78 416.6 58.81L416.92 58.55Z" fill="url(#paint1_linear)"/>
<path d="M402.92 92.86C413.148 92.86 421.44 82.5178 421.44 69.76C421.44 57.0023 413.148 46.66 402.92 46.66C392.692 46.66 384.4 57.0023 384.4 69.76C384.4 82.5178 392.692 92.86 402.92 92.86Z" fill="#606161"/>
<path d="M344.15 133.49C344.15 133.49 340.75 127.49 339.28 126.6C337.81 125.71 335.2 123.24 334.44 123.8C333.07 124.8 338.97 130.04 333.71 129.65C332.88 129.58 328.66 129.65 326.62 131.56C326.22 131.94 325.904 132.401 325.695 132.911C325.485 133.422 325.386 133.971 325.404 134.523C325.422 135.074 325.557 135.616 325.799 136.112C326.041 136.608 326.386 137.047 326.81 137.4C328.19 138.34 332.93 138.78 335.49 138.7C338.05 138.62 341.05 138.99 342.79 140.04" fill="#F5C7C8"/>
<path d="M380.44 108.03C380.44 108.03 378.01 115.67 377.77 119.8C377.53 123.93 375.59 141.28 374.94 142.13C374.29 142.98 343.17 132.4 343.17 132.4C343.17 132.4 341.29 135.05 342.79 140.04C342.79 140.04 365.9 160.95 379.89 161.77C393.88 162.59 392.08 129.46 392.08 129.46" fill="#F5C7C8"/>
<path d="M407.81 326.06L405.24 331.87C406.76 331.35 414.04 337.2 417.32 337.21C419.477 337.119 421.553 336.361 423.26 335.04L421.2 324.51L417.53 272.38L397.8 275.24L407.81 326.06Z" fill="#F5C7C8"/>
<path d="M369.78 325.63L365.99 329.18C367.59 329.06 373.18 336.54 376.36 337.37C378.474 337.82 380.675 337.603 382.66 336.75L383.28 326.03L387.28 277.78L367.83 279.69L369.78 325.63Z" fill="#F5C7C8"/>
<path d="M410.16 85.17L410.95 101.95C410.071 103.23 408.866 104.253 407.459 104.912C406.053 105.571 404.497 105.843 402.95 105.7C394.85 104.8 395.2 102.4 395.2 102.4C395.2 102.4 395.2 90.29 394.88 87.58" fill="#F5C7C8"/>
<path d="M408.23 90.63L410.1 87.25L394.89 88.94C395.01 89.94 395.09 92.38 395.13 94.94C397.493 95.6412 400.013 95.6042 402.354 94.834C404.695 94.0637 406.745 92.597 408.23 90.63V90.63Z" fill="#DBB4AF"/>
<path d="M422.14 206.63C422.14 206.63 424.58 252.79 427.83 290.15C427.83 290.15 383.19 296.58 364.96 289.43C364.96 289.43 368.88 214.99 369.7 204.31L422.14 206.63Z" fill="#606161"/>
<path d="M422.14 206.63C422.14 206.63 424.58 252.79 427.83 290.15C427.83 290.15 383.19 296.58 364.96 289.43C364.96 289.43 368.88 214.99 369.7 204.31L422.14 206.63Z" fill="url(#paint2_linear)"/>
<path d="M422.15 107.06C422.15 107.06 422.07 103.76 410.64 103.66C402.31 103.58 399.4 102.9 393.48 104.03C382.68 106.09 381.48 106.76 379.83 108.16C375.92 111.53 369.29 202.16 369.29 202.16C369.29 202.16 362.66 213.04 396.99 216.54C409.69 217.84 421.99 209.04 421.99 209.04L422.15 107.06Z" fill="#9C050E"/>
<path d="M416.48 58C416.48 58 415.81 79.49 409.56 86.84C402.97 94.6 399.22 95.55 391.22 92.38C384.42 89.67 383.61 71.06 383.38 65.7C382.79 51.79 404.11 39.81 416.48 58Z" fill="#F5C7C8"/>
<path d="M421.45 121.78L421.95 209L414.06 213.55L412.65 136.51L421.45 121.78Z" fill="url(#paint3_linear)"/>
<path d="M414.81 99.93L414.96 103.86C414.971 104.173 414.892 104.482 414.732 104.752C414.573 105.021 414.339 105.239 414.06 105.38C414.06 105.38 407.9 107.47 397.23 108.03L389.39 106.03C389.108 105.912 388.865 105.718 388.688 105.469C388.511 105.219 388.408 104.925 388.39 104.62L388.28 102.67C388.257 102.251 388.394 101.84 388.663 101.518C388.932 101.197 389.314 100.99 389.73 100.94L412.94 98.31C413.172 98.2788 413.408 98.2973 413.632 98.3642C413.856 98.4311 414.064 98.545 414.24 98.6982C414.417 98.8514 414.56 99.0405 414.658 99.2528C414.756 99.4652 414.808 99.6961 414.81 99.93V99.93Z" fill="#9C050E"/>
<path d="M414.81 99.93L414.96 103.86C414.971 104.173 414.892 104.482 414.732 104.752C414.573 105.021 414.339 105.239 414.06 105.38C414.06 105.38 407.9 107.47 397.23 108.03L389.39 106.03C389.108 105.912 388.865 105.718 388.688 105.469C388.511 105.219 388.408 104.925 388.39 104.62L388.28 102.67C388.257 102.251 388.394 101.84 388.663 101.518C388.932 101.197 389.314 100.99 389.73 100.94L412.94 98.31C413.172 98.2788 413.408 98.2973 413.632 98.3642C413.856 98.4311 414.064 98.545 414.24 98.6982C414.417 98.8514 414.56 99.0405 414.658 99.2528C414.756 99.4652 414.808 99.6961 414.81 99.93V99.93Z" fill="url(#paint4_linear)"/>
<path d="M414 71.63C414 71.63 414.34 68.39 417.53 69.79C420.72 71.19 417.72 76.79 416.48 78.36C415.24 79.93 412.86 79.43 412.86 79.43" fill="#F5C7C8"/>
<path d="M419.04 56.7L420.31 61.78H418.23L416.48 54.03L419.04 56.7Z" fill="#4EAE93"/>
<path d="M421.72 106.16C421.72 106.16 426.42 110.58 435.07 131.33C438.6 139.81 441.55 155.6 441.55 155.6C441.55 155.6 429.49 161.79 422.38 161.79C419.2 143.34 411.56 136.19 410.14 127.68C408.72 119.17 417.42 104.52 421.72 106.16Z" fill="#9C050E"/>
<path d="M360.09 330.21C356.606 331.194 353.529 333.269 351.31 336.13C350.427 337.257 349.889 338.614 349.76 340.04C349.707 340.751 349.849 341.464 350.172 342.1C350.494 342.737 350.985 343.272 351.59 343.65C352.432 344.024 353.349 344.202 354.27 344.17C362.815 344.53 371.373 344.38 379.9 343.72C380.258 343.74 380.617 343.681 380.95 343.548C381.283 343.415 381.583 343.211 381.83 342.95C382.056 342.499 382.14 341.99 382.07 341.49L381.83 336.13C381.872 335.531 381.717 334.934 381.39 334.43C380.44 333.27 378.59 334.24 377.1 334.16C374.1 334 373.34 330.27 370.87 329.24C368.05 328.06 362.91 329.35 360.09 330.21Z" fill="#9C050E"/>
<path d="M401.72 329.9C398.232 330.877 395.153 332.953 392.94 335.82C392.052 336.945 391.51 338.303 391.38 339.73C391.328 340.441 391.473 341.152 391.797 341.787C392.121 342.422 392.614 342.955 393.22 343.33C394.062 343.707 394.978 343.889 395.9 343.86C404.445 344.222 413.004 344.068 421.53 343.4C421.834 343.469 422.15 343.46 422.449 343.372C422.748 343.284 423.019 343.121 423.237 342.898C423.455 342.675 423.612 342.4 423.693 342.099C423.774 341.799 423.776 341.482 423.7 341.18L423.46 335.81C423.502 335.214 423.347 334.62 423.02 334.12C422.07 332.96 420.22 333.93 418.72 333.85C415.72 333.69 414.97 329.96 412.5 328.92C409.63 327.74 404.5 329.03 401.72 329.9Z" fill="#9C050E"/>
<path d="M360.09 330.21C356.606 331.194 353.529 333.269 351.31 336.13C350.427 337.257 349.889 338.614 349.76 340.04C349.707 340.751 349.849 341.464 350.172 342.1C350.494 342.737 350.985 343.272 351.59 343.65C352.432 344.024 353.349 344.202 354.27 344.17C362.815 344.53 371.373 344.38 379.9 343.72C380.258 343.74 380.617 343.681 380.95 343.548C381.283 343.415 381.583 343.211 381.83 342.95C382.056 342.499 382.14 341.99 382.07 341.49L381.83 336.13C381.872 335.531 381.717 334.934 381.39 334.43C380.44 333.27 378.59 334.24 377.1 334.16C374.1 334 373.34 330.27 370.87 329.24C368.05 328.06 362.91 329.35 360.09 330.21Z" fill="url(#paint5_linear)"/>
<path d="M401.72 329.9C398.232 330.877 395.153 332.953 392.94 335.82C392.052 336.945 391.51 338.303 391.38 339.73C391.328 340.441 391.473 341.152 391.797 341.787C392.121 342.422 392.614 342.955 393.22 343.33C394.062 343.707 394.978 343.889 395.9 343.86C404.445 344.222 413.004 344.068 421.53 343.4C421.834 343.469 422.15 343.46 422.449 343.372C422.748 343.284 423.019 343.121 423.237 342.898C423.455 342.675 423.612 342.4 423.693 342.099C423.774 341.799 423.776 341.482 423.7 341.18L423.46 335.81C423.502 335.214 423.347 334.62 423.02 334.12C422.07 332.96 420.22 333.93 418.72 333.85C415.72 333.69 414.97 329.96 412.5 328.92C409.63 327.74 404.5 329.03 401.72 329.9Z" fill="url(#paint6_linear)"/>
<path d="M383.83 53C383.5 53.59 383.19 54.21 382.88 54.87C382.037 56.6126 381.635 58.5357 381.71 60.47C381.71 61.27 383.26 65.09 383.11 65.4C385.172 61.2868 388.227 57.7534 392 55.12C393.42 58.33 396.87 60.05 400 61.56C403.13 63.07 406.6 64.92 407.82 68.22C408.67 70.48 408.35 73.22 409.82 75.13C413.45 74.64 414.24 68.78 417.82 68.13C418.47 68.01 419.15 68.13 419.82 67.95C420.63 67.712 421.343 67.224 421.859 66.5558C422.374 65.8876 422.665 65.0736 422.69 64.23C423.25 56.66 414.07 49.63 407.94 47.1C405.102 45.8981 402.052 45.2787 398.97 45.2787C395.888 45.2787 392.838 45.8981 390 47.1C387.319 48.2888 385.137 50.3753 383.83 53V53Z" fill="#606161"/>
<path d="M383.83 53C383.5 53.59 383.19 54.21 382.88 54.87C382.037 56.6126 381.635 58.5357 381.71 60.47C381.71 61.27 383.26 65.09 383.11 65.4C385.172 61.2868 388.227 57.7534 392 55.12C393.42 58.33 396.87 60.05 400 61.56C403.13 63.07 406.6 64.92 407.82 68.22C408.67 70.48 408.35 73.22 409.82 75.13C413.45 74.64 414.24 68.78 417.82 68.13C418.47 68.01 419.15 68.13 419.82 67.95C420.63 67.712 421.343 67.224 421.859 66.5558C422.374 65.8876 422.665 65.0736 422.69 64.23C423.25 56.66 414.07 49.63 407.94 47.1C405.102 45.8981 402.052 45.2787 398.97 45.2787C395.888 45.2787 392.838 45.8981 390 47.1C387.319 48.2888 385.137 50.3753 383.83 53V53Z" fill="url(#paint7_linear)"/>
<path d="M225.38 17.3H41.53C32.7045 17.3 25.55 24.4545 25.55 33.28V331.16C25.55 339.986 32.7045 347.14 41.53 347.14H225.38C234.206 347.14 241.36 339.986 241.36 331.16V33.28C241.36 24.4545 234.206 17.3 225.38 17.3Z" fill="#9C050E"/>
<path d="M231.51 17.3H47.66C38.8345 17.3 31.68 24.4545 31.68 33.28V331.16C31.68 339.986 38.8345 347.14 47.66 347.14H231.51C240.336 347.14 247.49 339.986 247.49 331.16V33.28C247.49 24.4545 240.336 17.3 231.51 17.3Z" fill="#9C050E"/>
<path d="M231.51 17.3H47.66C38.8345 17.3 31.68 24.4545 31.68 33.28V331.16C31.68 339.986 38.8345 347.14 47.66 347.14H231.51C240.336 347.14 247.49 339.986 247.49 331.16V33.28C247.49 24.4545 240.336 17.3 231.51 17.3Z" fill="url(#paint8_linear)"/>
<path d="M48.17 207.04L53.82 33.32L217.17 36.77C217.17 36.77 195.81 217.09 210.89 263.63C225.97 310.17 228.48 327.63 228.48 327.63L51.94 332.63L48.17 207.04Z" fill="url(#paint9_linear)"/>
<path d="M257.85 312.27L79.27 314.16C79.27 314.16 60.91 207.49 57.72 171.73C54.59 137.28 53.87 33.32 53.87 33.32H224.4C224.4 33.32 224.83 134.07 227.85 167.45C231.19 204.28 257.85 312.27 257.85 312.27Z" fill="white"/>
<path d="M337.55 31.43L325.4 3.85002L324.4 1.51001C324.365 1.43505 324.305 1.37483 324.23 1.34002C324.167 1.27517 324.088 1.22698 324.002 1.19974C323.915 1.1725 323.824 1.16705 323.734 1.18387C323.645 1.2007 323.562 1.23928 323.491 1.29618C323.421 1.35308 323.365 1.42653 323.33 1.51001L310.17 31.43C309.901 32.0621 309.764 32.743 309.77 33.43V322.33H337.95V33.44C337.957 32.7496 337.821 32.0652 337.55 31.43V31.43ZM337.72 322.16H309.93V316.03H337.72V322.16Z" fill="#9C050E"/>
<path d="M333.1 33.44V316.03H315.83V33.4C315.817 32.7261 315.895 32.0535 316.06 31.4L324.13 1.48001C324.129 1.418 324.15 1.35771 324.19 1.31001C324.36 1.04001 324.66 1.11001 324.76 1.48001L325.4 3.82001L332.83 31.4C333.011 32.0648 333.102 32.751 333.1 33.44Z" fill="url(#paint10_linear)"/>
<path d="M315.83 322.16H333.1V342.98C333.1 345.72 331.72 347.93 330.05 347.93H318.84C317.16 347.93 315.84 345.72 315.84 342.98L315.83 322.16Z" fill="url(#paint11_linear)"/>
<path d="M337.95 33.44C333.561 35.5806 328.743 36.6931 323.86 36.6931C318.977 36.6931 314.159 35.5806 309.77 33.44L318.07 15.3L324.36 1.54999L329.78 14.3L337.95 33.44Z" fill="url(#paint12_linear)"/>
<path d="M329.78 14.26C326.12 15.9749 321.968 16.3294 318.07 15.26L324.36 1.51001L329.78 14.26Z" fill="#9C050E"/>
<path d="M329.78 14.26C325.78 16.26 320.78 15.92 317.4 15.12L323.72 0.330017L329.78 14.26Z" fill="url(#paint13_linear)"/>
<path d="M157.49 68.5H73.31C71.747 68.5 70.48 69.7648 70.48 71.325C70.48 72.8852 71.747 74.15 73.31 74.15H157.49C159.053 74.15 160.32 72.8852 160.32 71.325C160.32 69.7648 159.053 68.5 157.49 68.5Z" fill="#9C050E"/>
<path d="M157.49 78.24H73.31C71.747 78.24 70.48 79.5048 70.48 81.065C70.48 82.6252 71.747 83.89 73.31 83.89H157.49C159.053 83.89 160.32 82.6252 160.32 81.065C160.32 79.5048 159.053 78.24 157.49 78.24Z" fill="#9C050E"/>
<path d="M157.49 87.98H73.31C71.747 87.98 70.48 89.2448 70.48 90.805C70.48 92.3652 71.747 93.63 73.31 93.63H157.49C159.053 93.63 160.32 92.3652 160.32 90.805C160.32 89.2448 159.053 87.98 157.49 87.98Z" fill="#9C050E"/>
<path d="M158 97.72H102.2C100.919 97.72 99.88 98.7587 99.88 100.04V101.05C99.88 102.331 100.919 103.37 102.2 103.37H158C159.281 103.37 160.32 102.331 160.32 101.05V100.04C160.32 98.7587 159.281 97.72 158 97.72Z" fill="#9C050E"/>
<path d="M158.43 130.23H74.25C72.687 130.23 71.42 131.495 71.42 133.055C71.42 134.615 72.687 135.88 74.25 135.88H158.43C159.993 135.88 161.26 134.615 161.26 133.055C161.26 131.495 159.993 130.23 158.43 130.23Z" fill="#9C050E"/>
<path d="M158.43 139.97H74.25C72.687 139.97 71.42 141.235 71.42 142.795C71.42 144.355 72.687 145.62 74.25 145.62H158.43C159.993 145.62 161.26 144.355 161.26 142.795C161.26 141.235 159.993 139.97 158.43 139.97Z" fill="#9C050E"/>
<path d="M158.43 149.7H74.25C72.687 149.7 71.42 150.965 71.42 152.525C71.42 154.085 72.687 155.35 74.25 155.35H158.43C159.993 155.35 161.26 154.085 161.26 152.525C161.26 150.965 159.993 149.7 158.43 149.7Z" fill="#9C050E"/>
<path d="M158.94 159.44H103.14C101.859 159.44 100.82 160.479 100.82 161.76V162.77C100.82 164.051 101.859 165.09 103.14 165.09H158.94C160.221 165.09 161.26 164.051 161.26 162.77V161.76C161.26 160.479 160.221 159.44 158.94 159.44Z" fill="#9C050E"/>
<path d="M164.84 194.78H80.65C79.87 194.756 79.1229 194.46 78.5384 193.943C77.9539 193.427 77.5688 192.721 77.45 191.95C77.389 191.598 77.4072 191.236 77.5032 190.892C77.5993 190.547 77.7708 190.228 78.0054 189.958C78.2399 189.688 78.5317 189.474 78.8594 189.331C79.1871 189.187 79.5425 189.119 79.9 189.13H164.08C164.861 189.149 165.61 189.442 166.197 189.957C166.784 190.473 167.171 191.178 167.29 191.95C167.351 192.303 167.333 192.665 167.237 193.01C167.141 193.355 166.969 193.674 166.735 193.945C166.5 194.216 166.209 194.431 165.881 194.575C165.554 194.72 165.198 194.79 164.84 194.78V194.78Z" fill="#9C050E"/>
<path d="M166.14 204.5H81.95C81.1589 204.482 80.3999 204.183 79.8084 203.658C79.2169 203.132 78.8312 202.414 78.72 201.63V201.63C78.6609 201.278 78.6804 200.917 78.7772 200.573C78.8739 200.23 79.0456 199.912 79.2797 199.642C79.5139 199.373 79.8049 199.158 80.1317 199.014C80.4585 198.87 80.8131 198.801 81.17 198.81H165.36C166.139 198.833 166.884 199.128 167.469 199.643C168.053 200.158 168.439 200.861 168.56 201.63C168.627 201.983 168.614 202.347 168.523 202.695C168.432 203.043 168.264 203.366 168.032 203.64C167.801 203.915 167.511 204.135 167.183 204.284C166.856 204.432 166.499 204.506 166.14 204.5V204.5Z" fill="#9C050E"/>
<path d="M167.44 214.22H83.25C82.4715 214.197 81.7256 213.902 81.1413 213.387C80.5569 212.872 80.1709 212.169 80.05 211.4V211.4C79.9892 211.047 80.0075 210.685 80.1035 210.34C80.1995 209.995 80.3709 209.676 80.6053 209.405C80.8396 209.134 81.1312 208.919 81.4588 208.775C81.7865 208.63 82.1421 208.56 82.5 208.57H166.72C167.5 208.594 168.247 208.89 168.832 209.406C169.416 209.923 169.801 210.629 169.92 211.4C169.98 211.755 169.96 212.118 169.861 212.464C169.763 212.81 169.588 213.13 169.351 213.4C169.113 213.67 168.819 213.884 168.488 214.026C168.157 214.167 167.799 214.234 167.44 214.22V214.22Z" fill="#9C050E"/>
<path d="M169.25 223.94H113.45C112.811 223.922 112.198 223.682 111.718 223.26C111.238 222.838 110.92 222.261 110.82 221.63L110.68 220.63C110.633 220.342 110.65 220.047 110.73 219.766C110.809 219.485 110.949 219.225 111.139 219.004C111.33 218.783 111.567 218.606 111.833 218.486C112.099 218.366 112.388 218.306 112.68 218.31H168.49C169.13 218.328 169.744 218.57 170.225 218.994C170.705 219.418 171.022 219.997 171.12 220.63L171.25 221.63C171.295 221.917 171.277 222.211 171.197 222.491C171.117 222.77 170.977 223.029 170.786 223.249C170.596 223.469 170.36 223.645 170.094 223.764C169.829 223.884 169.541 223.944 169.25 223.94Z" fill="#9C050E"/>
<path d="M175.06 256.63H90.87C90.0703 256.596 89.3047 256.296 88.6944 255.778C88.0841 255.26 87.6638 254.554 87.5 253.77V253.77C87.4135 253.426 87.4078 253.066 87.4833 252.72C87.5588 252.373 87.7135 252.049 87.9352 251.772C88.157 251.495 88.4398 251.273 88.7616 251.123C89.0833 250.974 89.4353 250.901 89.79 250.91H173.98C174.78 250.944 175.545 251.244 176.156 251.762C176.766 252.28 177.186 252.986 177.35 253.77V253.77C177.439 254.114 177.446 254.474 177.371 254.822C177.297 255.17 177.142 255.495 176.92 255.772C176.698 256.05 176.414 256.272 176.091 256.421C175.768 256.57 175.415 256.641 175.06 256.63V256.63Z" fill="#9C050E"/>
<path d="M176.93 266.45H92.72C91.9189 266.415 91.1523 266.114 90.5418 265.594C89.9313 265.074 89.5119 264.365 89.35 263.58V263.58C89.2616 263.237 89.2542 262.877 89.3283 262.531C89.4024 262.184 89.556 261.859 89.7771 261.582C89.9981 261.304 90.2806 261.082 90.6021 260.933C90.9236 260.783 91.2755 260.71 91.63 260.72H175.82C176.62 260.752 177.387 261.052 177.997 261.57C178.608 262.088 179.028 262.796 179.19 263.58V263.58C179.28 263.922 179.289 264.281 179.217 264.627C179.144 264.974 178.993 265.299 178.774 265.577C178.555 265.855 178.274 266.079 177.955 266.23C177.635 266.382 177.284 266.457 176.93 266.45V266.45Z" fill="#9C050E"/>
<path d="M178.79 276.31H94.6C93.8002 276.276 93.0347 275.976 92.4244 275.458C91.8141 274.94 91.3938 274.234 91.23 273.45C91.1506 273.109 91.1504 272.754 91.2292 272.412C91.3081 272.071 91.4639 271.752 91.6848 271.48C91.9058 271.207 92.186 270.99 92.504 270.842C92.8221 270.695 93.1696 270.622 93.52 270.63H177.72C178.521 270.666 179.286 270.968 179.896 271.488C180.507 272.008 180.927 272.715 181.09 273.5V273.5C181.168 273.842 181.166 274.196 181.086 274.537C181.006 274.878 180.849 275.196 180.627 275.467C180.405 275.739 180.124 275.955 179.806 276.101C179.488 276.247 179.14 276.319 178.79 276.31V276.31Z" fill="#9C050E"/>
<path d="M181.16 286.17H125.36C124.705 286.135 124.079 285.886 123.579 285.462C123.079 285.037 122.731 284.461 122.59 283.82L122.4 282.82C122.326 282.538 122.32 282.242 122.381 281.957C122.442 281.672 122.569 281.405 122.752 281.177C122.935 280.95 123.168 280.769 123.433 280.648C123.699 280.526 123.989 280.469 124.28 280.48H180.08C180.732 280.516 181.354 280.765 181.852 281.187C182.351 281.609 182.697 282.183 182.84 282.82L183.04 283.82C183.113 284.103 183.119 284.399 183.058 284.684C182.997 284.97 182.87 285.237 182.688 285.465C182.505 285.693 182.272 285.876 182.007 285.998C181.742 286.12 181.452 286.179 181.16 286.17V286.17Z" fill="#9C050E"/>
<path d="M200.04 109.91H183.26C180.044 109.907 176.96 108.629 174.686 106.354C172.411 104.08 171.133 100.996 171.13 97.78V79.63C171.133 76.4137 172.411 73.33 174.686 71.0557C176.96 68.7815 180.044 67.5026 183.26 67.5H200.04C203.256 67.5026 206.34 68.7815 208.614 71.0557C210.889 73.33 212.167 76.4137 212.17 79.63V97.82C212.157 101.029 210.873 104.103 208.6 106.368C206.327 108.634 203.249 109.907 200.04 109.91V109.91ZM183.26 70.8C180.93 70.8026 178.695 71.7296 177.047 73.3775C175.4 75.0253 174.473 77.2596 174.47 79.59V97.78C174.473 100.11 175.4 102.345 177.047 103.993C178.695 105.64 180.93 106.567 183.26 106.57H200.04C202.37 106.567 204.603 105.64 206.249 103.992C207.895 102.344 208.82 100.11 208.82 97.78V79.63C208.82 77.3005 207.895 75.0662 206.249 73.4181C204.603 71.7699 202.37 70.8427 200.04 70.84L183.26 70.8Z" fill="#9C050E"/>
<path d="M204.45 172.36H187.72C184.597 172.363 181.593 171.161 179.335 169.003C177.077 166.846 175.739 163.9 175.6 160.78L174.8 142.96C174.726 141.322 174.984 139.686 175.56 138.151C176.135 136.616 177.016 135.214 178.149 134.029C179.282 132.844 180.643 131.9 182.151 131.256C183.658 130.612 185.281 130.28 186.92 130.28H203.67C206.783 130.293 209.772 131.504 212.016 133.662C214.26 135.82 215.586 138.76 215.72 141.87L216.53 159.68C216.604 161.318 216.346 162.954 215.77 164.489C215.195 166.024 214.314 167.426 213.181 168.611C212.048 169.797 210.687 170.74 209.18 171.384C207.672 172.028 206.049 172.36 204.41 172.36H204.45ZM186.89 133.63C185.703 133.629 184.527 133.868 183.435 134.334C182.343 134.801 181.357 135.483 180.536 136.341C179.715 137.2 179.077 138.215 178.66 139.327C178.243 140.439 178.056 141.624 178.11 142.81L178.92 160.63C179.018 162.889 179.985 165.022 181.62 166.584C183.254 168.145 185.429 169.015 187.69 169.01H204.45C205.637 169.011 206.813 168.772 207.905 168.306C208.997 167.84 209.983 167.157 210.804 166.299C211.625 165.441 212.263 164.425 212.68 163.313C213.097 162.201 213.284 161.016 213.23 159.83L212.42 142.02C212.32 139.76 211.35 137.625 209.714 136.062C208.079 134.499 205.903 133.628 203.64 133.63H186.89Z" fill="#9C050E"/>
<path d="M193.02 230.12C189.971 230.122 187.034 228.974 184.795 226.905C182.556 224.836 181.179 221.999 180.94 218.96L179.51 201.19C179.379 199.556 179.581 197.912 180.103 196.358C180.625 194.804 181.456 193.371 182.547 192.147C183.637 190.923 184.964 189.932 186.448 189.235C187.932 188.538 189.542 188.148 191.18 188.09L207.93 187.51C211.04 187.423 214.066 188.525 216.392 190.591C218.718 192.657 220.169 195.532 220.45 198.63L221.88 216.4C222.009 218.034 221.807 219.677 221.284 221.231C220.762 222.784 219.93 224.216 218.84 225.44C217.75 226.664 216.423 227.654 214.94 228.352C213.457 229.05 211.848 229.44 210.21 229.5L193.46 230.08L193.02 230.12ZM208.37 190.85H208.05L191.3 191.43C190.114 191.473 188.948 191.757 187.874 192.262C186.8 192.768 185.84 193.485 185.05 194.372C184.261 195.259 183.659 196.296 183.281 197.421C182.903 198.546 182.756 199.737 182.85 200.92L184.28 218.69C184.468 220.941 185.513 223.033 187.199 224.537C188.884 226.04 191.082 226.839 193.34 226.77L210.09 226.18C211.276 226.139 212.442 225.858 213.517 225.354C214.591 224.85 215.553 224.133 216.343 223.247C217.132 222.361 217.734 221.324 218.112 220.199C218.49 219.073 218.635 217.883 218.54 216.7L217.11 198.93C216.939 196.73 215.943 194.676 214.323 193.178C212.703 191.68 210.577 190.848 208.37 190.85V190.85Z" fill="#9C050E"/>
<path d="M206.17 289.01C203.286 289.01 200.496 287.986 198.298 286.119C196.1 284.252 194.637 281.666 194.17 278.82L191.37 261.5C191.094 259.8 191.182 258.061 191.63 256.398C192.078 254.736 192.874 253.187 193.967 251.856C195.06 250.525 196.423 249.442 197.967 248.679C199.51 247.916 201.199 247.49 202.92 247.43L219.52 246.85C222.467 246.774 225.342 247.763 227.619 249.634C229.896 251.505 231.423 254.135 231.92 257.04L234.72 274.36C234.995 276.059 234.905 277.798 234.457 279.46C234.008 281.122 233.211 282.67 232.119 284.001C231.027 285.331 229.664 286.414 228.121 287.178C226.578 287.942 224.89 288.368 223.17 288.43L206.56 289L206.17 289.01ZM219.97 250.19H219.66L203.06 250.77C201.816 250.818 200.596 251.129 199.482 251.684C198.367 252.238 197.383 253.023 196.595 253.986C195.806 254.95 195.231 256.07 194.908 257.272C194.585 258.474 194.521 259.731 194.72 260.96L197.53 278.28C197.894 280.386 199.004 282.29 200.656 283.645C202.309 285 204.394 285.715 206.53 285.66L223.13 285.08C224.376 285.038 225.598 284.731 226.716 284.179C227.834 283.628 228.821 282.844 229.612 281.881C230.403 280.917 230.98 279.797 231.304 278.593C231.628 277.389 231.691 276.13 231.49 274.9L228.69 257.57C228.352 255.504 227.289 253.625 225.69 252.273C224.092 250.92 222.064 250.182 219.97 250.19Z" fill="#9C050E"/>
<path d="M183.11 26.72H101.71C98.4239 26.72 95.76 29.3839 95.76 32.67V41.97C95.76 45.2561 98.4239 47.92 101.71 47.92H183.11C186.396 47.92 189.06 45.2561 189.06 41.97V32.67C189.06 29.3839 186.396 26.72 183.11 26.72Z" fill="#9C050E"/>
<path d="M183.11 26.72H101.71C98.4239 26.72 95.76 29.3839 95.76 32.67V41.97C95.76 45.2561 98.4239 47.92 101.71 47.92H183.11C186.396 47.92 189.06 45.2561 189.06 41.97V32.67C189.06 29.3839 186.396 26.72 183.11 26.72Z" fill="url(#paint14_linear)"/>
<path d="M192.31 102.26L177.65 87.63C177.184 87.1638 176.814 86.6104 176.562 86.0013C176.309 85.3922 176.18 84.7393 176.18 84.08C176.18 83.4207 176.309 82.7679 176.562 82.1588C176.814 81.5497 177.184 80.9962 177.65 80.53C178.116 80.0638 178.67 79.694 179.279 79.4417C179.888 79.1894 180.541 79.0596 181.2 79.0596C181.859 79.0596 182.512 79.1894 183.121 79.4417C183.73 79.694 184.284 80.0638 184.75 80.53L191.75 87.53L215.24 60.36C216.111 59.3522 217.347 58.7318 218.676 58.6352C220.005 58.5386 221.317 58.9738 222.325 59.845C223.333 60.7163 223.953 61.9522 224.05 63.2809C224.146 64.6096 223.711 65.9222 222.84 66.93L192.31 102.26Z" fill="#0C1323"/>
<path d="M199.22 163.2L184.57 148.55C184.104 148.084 183.734 147.53 183.482 146.921C183.229 146.312 183.1 145.659 183.1 145C183.1 144.341 183.229 143.688 183.482 143.079C183.734 142.47 184.104 141.916 184.57 141.45C185.036 140.984 185.59 140.614 186.199 140.362C186.808 140.109 187.461 139.98 188.12 139.98C188.779 139.98 189.432 140.109 190.041 140.362C190.65 140.614 191.204 140.984 191.67 141.45L198.67 148.45L222.16 121.28C223.031 120.272 224.267 119.652 225.596 119.555C226.925 119.459 228.237 119.894 229.245 120.765C230.253 121.636 230.873 122.872 230.97 124.201C231.066 125.53 230.631 126.842 229.76 127.85L199.22 163.2Z" fill="#0C1323"/>
<path d="M204.25 221.31L189.59 206.63C188.648 205.689 188.12 204.412 188.12 203.08C188.12 201.749 188.648 200.472 189.59 199.53C190.531 198.589 191.808 198.06 193.14 198.06C194.471 198.06 195.748 198.589 196.69 199.53L203.69 206.53L227.18 179.36C227.611 178.862 228.135 178.453 228.724 178.157C229.313 177.862 229.954 177.685 230.611 177.637C231.268 177.589 231.928 177.671 232.553 177.879C233.178 178.086 233.757 178.414 234.255 178.845C234.753 179.276 235.162 179.8 235.458 180.389C235.753 180.978 235.93 181.619 235.978 182.276C236.026 182.933 235.944 183.593 235.736 184.218C235.529 184.843 235.201 185.422 234.77 185.92L204.25 221.31Z" fill="#0C1323"/>
<path d="M217.27 279.74L202.62 265.08C201.68 264.138 201.152 262.862 201.153 261.531C201.154 260.201 201.683 258.925 202.625 257.985C203.567 257.045 204.843 256.517 206.174 256.518C207.504 256.519 208.78 257.048 209.72 257.99L216.72 264.99L240.22 237.83C241.091 236.822 242.327 236.202 243.656 236.105C244.985 236.009 246.297 236.444 247.305 237.315C248.313 238.186 248.933 239.422 249.03 240.751C249.126 242.08 248.691 243.392 247.82 244.4L217.27 279.74Z" fill="#0C1323"/>
<path d="M337.72 316.03H309.94V322.16H337.72V316.03Z" fill="#9C050E"/>
<path d="M337.72 316.03H309.94V322.16H337.72V316.03Z" fill="url(#paint15_linear)"/>
<path d="M337.95 322.33V342.98C337.951 343.635 337.823 344.283 337.571 344.888C337.32 345.492 336.951 346.04 336.486 346.501C336.02 346.962 335.468 347.325 334.861 347.57C334.254 347.816 333.605 347.938 332.95 347.93H314.72C314.07 347.931 313.425 347.804 312.824 347.556C312.223 347.308 311.677 346.943 311.217 346.483C310.757 346.023 310.392 345.477 310.144 344.876C309.896 344.275 309.769 343.63 309.77 342.98V322.33H337.95Z" fill="#9C050E"/>
<path d="M337.95 322.33V342.98C337.951 343.635 337.823 344.283 337.571 344.888C337.32 345.492 336.951 346.04 336.486 346.501C336.02 346.962 335.468 347.325 334.861 347.57C334.254 347.816 333.605 347.938 332.95 347.93H314.72C314.07 347.931 313.425 347.804 312.824 347.556C312.223 347.308 311.677 346.943 311.217 346.483C310.757 346.023 310.392 345.477 310.144 344.876C309.896 344.275 309.769 343.63 309.77 342.98V322.33H337.95Z" fill="url(#paint16_linear)"/>
<defs>
<linearGradient id="paint0_linear" x1="215.23" y1="436.37" x2="237.84" y2="-150.43" gradientUnits="userSpaceOnUse">
<stop stop-color="#010101" stop-opacity="0"/>
<stop offset="0.95" stop-color="#010101"/>
</linearGradient>
<linearGradient id="paint1_linear" x1="9995.63" y1="3706.56" x2="9633.93" y2="3691" gradientUnits="userSpaceOnUse">
<stop stop-color="#010101" stop-opacity="0"/>
<stop offset="0.95" stop-color="#010101"/>
</linearGradient>
<linearGradient id="paint2_linear" x1="29668" y1="28012.3" x2="24733.1" y2="27716.5" gradientUnits="userSpaceOnUse">
<stop stop-color="#010101" stop-opacity="0"/>
<stop offset="0.95" stop-color="#010101"/>
</linearGradient>
<linearGradient id="paint3_linear" x1="4656.81" y1="20956.3" x2="7363.09" y2="20678.5" gradientUnits="userSpaceOnUse">
<stop stop-color="#010101" stop-opacity="0"/>
<stop offset="0.95" stop-color="#010101"/>
</linearGradient>
<linearGradient id="paint4_linear" x1="12604.3" y1="1751.55" x2="13476" y2="475.815" gradientUnits="userSpaceOnUse">
<stop stop-color="#010101" stop-opacity="0"/>
<stop offset="0.95" stop-color="#010101"/>
</linearGradient>
<linearGradient id="paint5_linear" x1="14286.8" y1="6888.26" x2="14137.5" y2="5726.68" gradientUnits="userSpaceOnUse">
<stop stop-color="#010101" stop-opacity="0"/>
<stop offset="0.95" stop-color="#010101"/>
</linearGradient>
<linearGradient id="paint6_linear" x1="15606.1" y1="6730.02" x2="15456.8" y2="5567.7" gradientUnits="userSpaceOnUse">
<stop stop-color="#010101" stop-opacity="0"/>
<stop offset="0.95" stop-color="#010101"/>
</linearGradient>
<linearGradient id="paint7_linear" x1="19850.3" y1="3584.74" x2="18868.4" y2="4236.14" gradientUnits="userSpaceOnUse">
<stop stop-color="#010101" stop-opacity="0"/>
<stop offset="0.95" stop-color="#010101"/>
</linearGradient>
<linearGradient id="paint8_linear" x1="122.3" y1="-93.7" x2="156.23" y2="447.87" gradientUnits="userSpaceOnUse">
<stop stop-color="white" stop-opacity="0"/>
<stop offset="0.14" stop-color="white" stop-opacity="0.22"/>
<stop offset="0.3" stop-color="white" stop-opacity="0.45"/>
<stop offset="0.45" stop-color="white" stop-opacity="0.65"/>
<stop offset="0.6" stop-color="white" stop-opacity="0.8"/>
<stop offset="0.73" stop-color="white" stop-opacity="0.91"/>
<stop offset="0.85" stop-color="white" stop-opacity="0.98"/>
<stop offset="0.94" stop-color="white"/>
</linearGradient>
<linearGradient id="paint9_linear" x1="12473.3" y1="117052" x2="141694" y2="31232.8" gradientUnits="userSpaceOnUse">
<stop stop-color="#010101" stop-opacity="0"/>
<stop offset="0.95" stop-color="#010101"/>
</linearGradient>
<linearGradient id="paint10_linear" x1="9214.2" y1="54277.6" x2="-7853.04" y2="54653" gradientUnits="userSpaceOnUse">
<stop stop-color="white" stop-opacity="0"/>
<stop offset="0.14" stop-color="white" stop-opacity="0.22"/>
<stop offset="0.3" stop-color="white" stop-opacity="0.45"/>
<stop offset="0.45" stop-color="white" stop-opacity="0.65"/>
<stop offset="0.6" stop-color="white" stop-opacity="0.8"/>
<stop offset="0.73" stop-color="white" stop-opacity="0.91"/>
<stop offset="0.85" stop-color="white" stop-opacity="0.98"/>
<stop offset="0.94" stop-color="white"/>
</linearGradient>
<linearGradient id="paint11_linear" x1="7415.02" y1="10329.2" x2="4323.86" y2="11159.9" gradientUnits="userSpaceOnUse">
<stop stop-color="white" stop-opacity="0"/>
<stop offset="0.14" stop-color="white" stop-opacity="0.22"/>
<stop offset="0.3" stop-color="white" stop-opacity="0.45"/>
<stop offset="0.45" stop-color="white" stop-opacity="0.65"/>
<stop offset="0.6" stop-color="white" stop-opacity="0.8"/>
<stop offset="0.73" stop-color="white" stop-opacity="0.91"/>
<stop offset="0.85" stop-color="white" stop-opacity="0.98"/>
<stop offset="0.94" stop-color="white"/>
</linearGradient>
<linearGradient id="paint12_linear" x1="11163.9" y1="2785.94" x2="11054.1" y2="4373.11" gradientUnits="userSpaceOnUse">
<stop stop-color="white" stop-opacity="0"/>
<stop offset="0.14" stop-color="white" stop-opacity="0.22"/>
<stop offset="0.3" stop-color="white" stop-opacity="0.45"/>
<stop offset="0.45" stop-color="white" stop-opacity="0.65"/>
<stop offset="0.6" stop-color="white" stop-opacity="0.8"/>
<stop offset="0.73" stop-color="white" stop-opacity="0.91"/>
<stop offset="0.85" stop-color="white" stop-opacity="0.98"/>
<stop offset="0.94" stop-color="white"/>
</linearGradient>
<linearGradient id="paint13_linear" x1="5040.74" y1="1310.81" x2="5321.39" y2="740.175" gradientUnits="userSpaceOnUse">
<stop stop-color="#0C1323"/>
</linearGradient>
<linearGradient id="paint14_linear" x1="18820.1" y1="1913.94" x2="18817.1" y2="1261.15" gradientUnits="userSpaceOnUse">
<stop stop-color="white" stop-opacity="0"/>
<stop offset="0.14" stop-color="white" stop-opacity="0.22"/>
<stop offset="0.3" stop-color="white" stop-opacity="0.45"/>
<stop offset="0.45" stop-color="white" stop-opacity="0.65"/>
<stop offset="0.6" stop-color="white" stop-opacity="0.8"/>
<stop offset="0.73" stop-color="white" stop-opacity="0.91"/>
<stop offset="0.85" stop-color="white" stop-opacity="0.98"/>
<stop offset="0.94" stop-color="white"/>
</linearGradient>
<linearGradient id="paint15_linear" x1="10909.4" y1="2457.67" x2="10912" y2="2777.69" gradientUnits="userSpaceOnUse">
<stop stop-color="#010101" stop-opacity="0"/>
<stop offset="0.95" stop-color="#010101"/>
</linearGradient>
<linearGradient id="paint16_linear" x1="11133.2" y1="10784.2" x2="11140.6" y2="9055.11" gradientUnits="userSpaceOnUse">
<stop stop-color="#010101" stop-opacity="0"/>
<stop offset="0.95" stop-color="#010101"/>
</linearGradient>
</defs>
</svg>
