<svg width="560" height="428" viewBox="0 0 560 428" fill="none" xmlns="http://www.w3.org/2000/svg">
<path d="M283.38 55.3H99.53C90.7045 55.3 83.55 62.4545 83.55 71.28V369.16C83.55 377.986 90.7045 385.14 99.53 385.14H283.38C292.206 385.14 299.36 377.986 299.36 369.16V71.28C299.36 62.4545 292.206 55.3 283.38 55.3Z" fill="#0C1323"/>
<path d="M289.51 55.3H105.66C96.8345 55.3 89.68 62.4545 89.68 71.28V369.16C89.68 377.986 96.8345 385.14 105.66 385.14H289.51C298.336 385.14 305.49 377.986 305.49 369.16V71.28C305.49 62.4545 298.336 55.3 289.51 55.3Z" fill="#9C050E"/>
<path d="M289.51 55.3H105.66C96.8345 55.3 89.68 62.4545 89.68 71.28V369.16C89.68 377.986 96.8345 385.14 105.66 385.14H289.51C298.336 385.14 305.49 377.986 305.49 369.16V71.28C305.49 62.4545 298.336 55.3 289.51 55.3Z" fill="url(#paint0_linear)"/>
<path d="M106.17 245.04L111.82 71.32L275.17 74.77C275.17 74.77 253.81 255.09 268.89 301.63C283.97 348.17 286.48 365.63 286.48 365.63L109.94 370.63L106.17 245.04Z" fill="url(#paint1_linear)"/>
<path d="M309.98 349.95L131.4 351.84C131.4 351.84 113.04 245.17 109.85 209.41C106.72 174.96 106 71 106 71H276.53C276.53 71 276.96 171.75 279.98 205.13C283.32 241.96 309.98 349.95 309.98 349.95Z" fill="white"/>
<path d="M241.11 64.72H159.71C156.424 64.72 153.76 67.3839 153.76 70.67V79.97C153.76 83.2561 156.424 85.92 159.71 85.92H241.11C244.396 85.92 247.06 83.2561 247.06 79.97V70.67C247.06 67.3839 244.396 64.72 241.11 64.72Z" fill="#9C050E"/>
<path d="M241.11 64.72H159.71C156.424 64.72 153.76 67.3839 153.76 70.67V79.97C153.76 83.2561 156.424 85.92 159.71 85.92H241.11C244.396 85.92 247.06 83.2561 247.06 79.97V70.67C247.06 67.3839 244.396 64.72 241.11 64.72Z" fill="url(#paint2_linear)"/>
<path d="M214.548 84.4023H131.782C130.246 84.4023 129 85.4829 129 86.816C129 88.1491 130.246 89.2297 131.782 89.2297H214.548C216.085 89.2297 217.331 88.1491 217.331 86.816C217.331 85.4829 216.085 84.4023 214.548 84.4023Z" fill="#9C050E"/>
<path d="M214.548 92.448H131.782C130.246 92.448 129 93.5287 129 94.8617C129 96.1948 130.246 97.2754 131.782 97.2754H214.548C216.085 97.2754 217.331 96.1948 217.331 94.8617C217.331 93.5287 216.085 92.448 214.548 92.448Z" fill="#9C050E"/>
<path d="M214.548 100.494H131.782C130.246 100.494 129 101.394 129 102.505C129 103.616 130.246 104.517 131.782 104.517H214.548C216.085 104.517 217.331 103.616 217.331 102.505C217.331 101.394 216.085 100.494 214.548 100.494Z" fill="#9C050E"/>
<path d="M215.058 108.539H160.393C159.138 108.539 158.12 109.279 158.12 110.191V110.91C158.12 111.823 159.138 112.562 160.393 112.562H215.058C216.313 112.562 217.331 111.823 217.331 110.91V110.191C217.331 109.279 216.313 108.539 215.058 108.539Z" fill="#9C050E"/>
<path d="M255.226 118.122H238.938C235.816 118.12 232.823 117.091 230.615 115.261C228.408 113.431 227.166 110.95 227.164 108.362V93.7595C227.166 91.1718 228.408 88.6906 230.615 86.8608C232.823 85.031 235.816 84.0021 238.938 84H255.226C258.348 84.0021 261.341 85.031 263.549 86.8608C265.756 88.6906 266.997 91.1718 267 93.7595V108.395C266.987 110.977 265.741 113.45 263.535 115.273C261.328 117.095 258.341 118.12 255.226 118.122V118.122ZM238.938 86.6551C236.676 86.6572 234.507 87.403 232.908 88.7288C231.308 90.0547 230.408 91.8523 230.406 93.7273V108.362C230.408 110.237 231.308 112.035 232.908 113.361C234.507 114.687 236.676 115.433 238.938 115.435H255.226C257.487 115.433 259.655 114.686 261.253 113.36C262.851 112.034 263.748 110.237 263.748 108.362V93.7595C263.748 91.8852 262.851 90.0876 261.253 88.7615C259.655 87.4355 257.487 86.6894 255.226 86.6873L238.938 86.6551Z" fill="#9C050E"/>
<path d="M242.661 112.258L234.637 104.436C234.382 104.186 234.179 103.891 234.041 103.565C233.903 103.239 233.832 102.89 233.832 102.538C233.832 102.185 233.903 101.836 234.041 101.51C234.179 101.185 234.382 100.889 234.637 100.639C234.892 100.39 235.195 100.192 235.528 100.058C235.862 99.9227 236.219 99.8532 236.58 99.8532C236.941 99.8532 237.298 99.9227 237.632 100.058C237.965 100.192 238.268 100.39 238.523 100.639L242.354 104.382L255.211 89.8549C255.688 89.316 256.364 88.9843 257.092 88.9326C257.819 88.881 258.537 89.1137 259.089 89.5795C259.641 90.0453 259.98 90.7062 260.033 91.4166C260.086 92.127 259.848 92.8289 259.371 93.3677L242.661 112.258Z" fill="#0C1323"/>
<path d="M242.829 152.333L234.805 144.51C234.55 144.261 234.347 143.965 234.209 143.639C234.071 143.314 234 142.965 234 142.612C234 142.26 234.071 141.91 234.209 141.585C234.347 141.259 234.55 140.963 234.805 140.714C235.06 140.465 235.363 140.267 235.696 140.132C236.03 139.997 236.387 139.928 236.748 139.928C237.109 139.928 237.466 139.997 237.799 140.132C238.133 140.267 238.436 140.465 238.691 140.714L242.522 144.457L255.379 129.929C255.856 129.39 256.532 129.059 257.259 129.007C257.987 128.955 258.705 129.188 259.257 129.654C259.808 130.12 260.148 130.781 260.201 131.491C260.254 132.201 260.015 132.903 259.539 133.442L242.829 152.333Z" fill="#0C1323"/>
<path d="M214.548 123.402H131.782C130.246 123.402 129 124.483 129 125.816C129 127.149 130.246 128.23 131.782 128.23H214.548C216.085 128.23 217.331 127.149 217.331 125.816C217.331 124.483 216.085 123.402 214.548 123.402Z" fill="#9C050E"/>
<path d="M214.548 131.448H131.782C130.246 131.448 129 132.529 129 133.862C129 135.195 130.246 136.275 131.782 136.275H214.548C216.085 136.275 217.331 135.195 217.331 133.862C217.331 132.529 216.085 131.448 214.548 131.448Z" fill="#9C050E"/>
<path d="M214.548 139.494H131.782C130.246 139.494 129 140.394 129 141.505C129 142.616 130.246 143.517 131.782 143.517H214.548C216.085 143.517 217.331 142.616 217.331 141.505C217.331 140.394 216.085 139.494 214.548 139.494Z" fill="#9C050E"/>
<path d="M215.058 147.539H160.393C159.138 147.539 158.12 148.279 158.12 149.191V149.91C158.12 150.823 159.138 151.562 160.393 151.562H215.058C216.313 151.562 217.331 150.823 217.331 149.91V149.191C217.331 148.279 216.313 147.539 215.058 147.539Z" fill="#9C050E"/>
<path d="M255.226 157.122H238.938C235.816 157.12 232.823 156.091 230.615 154.261C228.408 152.431 227.166 149.95 227.164 147.362V132.759C227.166 130.172 228.408 127.691 230.615 125.861C232.823 124.031 235.816 123.002 238.938 123H255.226C258.348 123.002 261.341 124.031 263.549 125.861C265.756 127.691 266.997 130.172 267 132.759V147.395C266.987 149.977 265.741 152.45 263.535 154.273C261.328 156.095 258.341 157.12 255.226 157.122V157.122ZM238.938 125.655C236.676 125.657 234.507 126.403 232.908 127.729C231.308 129.055 230.408 130.852 230.406 132.727V147.362C230.408 149.237 231.308 151.035 232.908 152.361C234.507 153.687 236.676 154.433 238.938 154.435H255.226C257.487 154.433 259.655 153.686 261.253 152.36C262.851 151.034 263.748 149.237 263.748 147.362V132.759C263.748 130.885 262.851 129.088 261.253 127.762C259.655 126.435 257.487 125.689 255.226 125.687L238.938 125.655Z" fill="#9C050E"/>
<path d="M216.548 162.402H133.782C132.246 162.402 131 163.483 131 164.816C131 166.149 132.246 167.23 133.782 167.23H216.548C218.085 167.23 219.331 166.149 219.331 164.816C219.331 163.483 218.085 162.402 216.548 162.402Z" fill="#9C050E"/>
<path d="M216.548 170.448H133.782C132.246 170.448 131 171.529 131 172.862C131 174.195 132.246 175.275 133.782 175.275H216.548C218.085 175.275 219.331 174.195 219.331 172.862C219.331 171.529 218.085 170.448 216.548 170.448Z" fill="#9C050E"/>
<path d="M216.548 178.494H133.782C132.246 178.494 131 179.394 131 180.505C131 181.616 132.246 182.517 133.782 182.517H216.548C218.085 182.517 219.331 181.616 219.331 180.505C219.331 179.394 218.085 178.494 216.548 178.494Z" fill="#9C050E"/>
<path d="M217.058 186.539H162.393C161.138 186.539 160.12 187.279 160.12 188.191V188.91C160.12 189.823 161.138 190.562 162.393 190.562H217.058C218.313 190.562 219.331 189.823 219.331 188.91V188.191C219.331 187.279 218.313 186.539 217.058 186.539Z" fill="#9C050E"/>
<path d="M257.226 196.122H240.938C237.816 196.12 234.823 195.091 232.615 193.261C230.408 191.431 229.166 188.95 229.164 186.362V171.759C229.166 169.172 230.408 166.691 232.615 164.861C234.823 163.031 237.816 162.002 240.938 162H257.226C260.348 162.002 263.341 163.031 265.549 164.861C267.756 166.691 268.997 169.172 269 171.759V186.395C268.987 188.977 267.741 191.45 265.535 193.273C263.328 195.095 260.341 196.12 257.226 196.122V196.122ZM240.938 164.655C238.676 164.657 236.507 165.403 234.908 166.729C233.308 168.055 232.408 169.852 232.406 171.727V186.362C232.408 188.237 233.308 190.035 234.908 191.361C236.507 192.687 238.676 193.433 240.938 193.435H257.226C259.487 193.433 261.655 192.686 263.253 191.36C264.851 190.034 265.748 188.237 265.748 186.362V171.759C265.748 169.885 264.851 168.088 263.253 166.762C261.655 165.435 259.487 164.689 257.226 164.687L240.938 164.655Z" fill="#9C050E"/>
<path d="M216.548 201.402H133.782C132.246 201.402 131 202.483 131 203.816C131 205.149 132.246 206.23 133.782 206.23H216.548C218.085 206.23 219.331 205.149 219.331 203.816C219.331 202.483 218.085 201.402 216.548 201.402Z" fill="#9C050E"/>
<path d="M216.548 209.448H133.782C132.246 209.448 131 210.529 131 211.862C131 213.195 132.246 214.275 133.782 214.275H216.548C218.085 214.275 219.331 213.195 219.331 211.862C219.331 210.529 218.085 209.448 216.548 209.448Z" fill="#9C050E"/>
<path d="M216.548 217.494H133.782C132.246 217.494 131 218.394 131 219.505C131 220.616 132.246 221.517 133.782 221.517H216.548C218.085 221.517 219.331 220.616 219.331 219.505C219.331 218.394 218.085 217.494 216.548 217.494Z" fill="#9C050E"/>
<path d="M217.058 225.539H162.393C161.138 225.539 160.12 226.279 160.12 227.191V227.91C160.12 228.823 161.138 229.562 162.393 229.562H217.058C218.313 229.562 219.331 228.823 219.331 227.91V227.191C219.331 226.279 218.313 225.539 217.058 225.539Z" fill="#9C050E"/>
<path d="M257.226 235.122H240.938C237.816 235.12 234.823 234.091 232.615 232.261C230.408 230.431 229.166 227.95 229.164 225.362V210.759C229.166 208.172 230.408 205.691 232.615 203.861C234.823 202.031 237.816 201.002 240.938 201H257.226C260.348 201.002 263.341 202.031 265.549 203.861C267.756 205.691 268.997 208.172 269 210.759V225.395C268.987 227.977 267.741 230.45 265.535 232.273C263.328 234.095 260.341 235.12 257.226 235.122V235.122ZM240.938 203.655C238.676 203.657 236.507 204.403 234.908 205.729C233.308 207.055 232.408 208.852 232.406 210.727V225.362C232.408 227.237 233.308 229.035 234.908 230.361C236.507 231.687 238.676 232.433 240.938 232.435H257.226C259.487 232.433 261.655 231.686 263.253 230.36C264.851 229.034 265.748 227.237 265.748 225.362V210.759C265.748 208.885 264.851 207.088 263.253 205.762C261.655 204.435 259.487 203.689 257.226 203.687L240.938 203.655Z" fill="#9C050E"/>
<path d="M216.548 240.402H133.782C132.246 240.402 131 241.483 131 242.816C131 244.149 132.246 245.23 133.782 245.23H216.548C218.085 245.23 219.331 244.149 219.331 242.816C219.331 241.483 218.085 240.402 216.548 240.402Z" fill="#9C050E"/>
<path d="M216.548 248.448H133.782C132.246 248.448 131 249.529 131 250.862C131 252.195 132.246 253.275 133.782 253.275H216.548C218.085 253.275 219.331 252.195 219.331 250.862C219.331 249.529 218.085 248.448 216.548 248.448Z" fill="#9C050E"/>
<path d="M216.548 256.494H133.782C132.246 256.494 131 257.394 131 258.505C131 259.616 132.246 260.517 133.782 260.517H216.548C218.085 260.517 219.331 259.616 219.331 258.505C219.331 257.394 218.085 256.494 216.548 256.494Z" fill="#9C050E"/>
<path d="M217.058 264.539H162.393C161.138 264.539 160.12 265.279 160.12 266.191V266.91C160.12 267.823 161.138 268.562 162.393 268.562H217.058C218.313 268.562 219.331 267.823 219.331 266.91V266.191C219.331 265.279 218.313 264.539 217.058 264.539Z" fill="#9C050E"/>
<path d="M257.226 274.122H240.938C237.816 274.12 234.823 273.091 232.615 271.261C230.408 269.431 229.166 266.95 229.164 264.362V249.759C229.166 247.172 230.408 244.691 232.615 242.861C234.823 241.031 237.816 240.002 240.938 240H257.226C260.348 240.002 263.341 241.031 265.549 242.861C267.756 244.691 268.997 247.172 269 249.759V264.395C268.987 266.977 267.741 269.45 265.535 271.273C263.328 273.095 260.341 274.12 257.226 274.122V274.122ZM240.938 242.655C238.676 242.657 236.507 243.403 234.908 244.729C233.308 246.055 232.408 247.852 232.406 249.727V264.362C232.408 266.237 233.308 268.035 234.908 269.361C236.507 270.687 238.676 271.433 240.938 271.435H257.226C259.487 271.433 261.655 270.686 263.253 269.36C264.851 268.034 265.748 266.237 265.748 264.362V249.759C265.748 247.885 264.851 246.088 263.253 244.762C261.655 243.435 259.487 242.689 257.226 242.687L240.938 242.655Z" fill="#9C050E"/>
<path d="M216.548 279.402H133.782C132.246 279.402 131 280.483 131 281.816C131 283.149 132.246 284.23 133.782 284.23H216.548C218.085 284.23 219.331 283.149 219.331 281.816C219.331 280.483 218.085 279.402 216.548 279.402Z" fill="#9C050E"/>
<path d="M216.548 287.448H133.782C132.246 287.448 131 288.529 131 289.862C131 291.195 132.246 292.275 133.782 292.275H216.548C218.085 292.275 219.331 291.195 219.331 289.862C219.331 288.529 218.085 287.448 216.548 287.448Z" fill="#9C050E"/>
<path d="M216.548 295.494H133.782C132.246 295.494 131 296.394 131 297.505C131 298.616 132.246 299.517 133.782 299.517H216.548C218.085 299.517 219.331 298.616 219.331 297.505C219.331 296.394 218.085 295.494 216.548 295.494Z" fill="#9C050E"/>
<path d="M217.058 303.539H162.393C161.138 303.539 160.12 304.279 160.12 305.191V305.91C160.12 306.823 161.138 307.562 162.393 307.562H217.058C218.313 307.562 219.331 306.823 219.331 305.91V305.191C219.331 304.279 218.313 303.539 217.058 303.539Z" fill="#9C050E"/>
<path d="M257.226 313.122H240.938C237.816 313.12 234.823 312.091 232.615 310.261C230.408 308.431 229.166 305.95 229.164 303.362V288.759C229.166 286.172 230.408 283.691 232.615 281.861C234.823 280.031 237.816 279.002 240.938 279H257.226C260.348 279.002 263.341 280.031 265.549 281.861C267.756 283.691 268.997 286.172 269 288.759V303.395C268.987 305.977 267.741 308.45 265.535 310.273C263.328 312.095 260.341 313.12 257.226 313.122V313.122ZM240.938 281.655C238.676 281.657 236.507 282.403 234.908 283.729C233.308 285.055 232.408 286.852 232.406 288.727V303.362C232.408 305.237 233.308 307.035 234.908 308.361C236.507 309.687 238.676 310.433 240.938 310.435H257.226C259.487 310.433 261.655 309.686 263.253 308.36C264.851 307.034 265.748 305.237 265.748 303.362V288.759C265.748 286.885 264.851 285.088 263.253 283.762C261.655 282.435 259.487 281.689 257.226 281.687L240.938 281.655Z" fill="#9C050E"/>
<defs>
<linearGradient id="paint0_linear" x1="180.3" y1="-55.7" x2="214.23" y2="485.87" gradientUnits="userSpaceOnUse">
<stop stop-color="white" stop-opacity="0"/>
<stop offset="0.14" stop-color="white" stop-opacity="0.22"/>
<stop offset="0.3" stop-color="white" stop-opacity="0.45"/>
<stop offset="0.45" stop-color="white" stop-opacity="0.65"/>
<stop offset="0.6" stop-color="white" stop-opacity="0.8"/>
<stop offset="0.73" stop-color="white" stop-opacity="0.91"/>
<stop offset="0.85" stop-color="white" stop-opacity="0.98"/>
<stop offset="0.94" stop-color="white"/>
</linearGradient>
<linearGradient id="paint1_linear" x1="12531.3" y1="117090" x2="141752" y2="31270.8" gradientUnits="userSpaceOnUse">
<stop stop-color="#010101" stop-opacity="0"/>
<stop offset="0.95" stop-color="#010101"/>
</linearGradient>
<linearGradient id="paint2_linear" x1="18878.1" y1="1951.94" x2="18875.1" y2="1299.15" gradientUnits="userSpaceOnUse">
<stop stop-color="white" stop-opacity="0"/>
<stop offset="0.14" stop-color="white" stop-opacity="0.22"/>
<stop offset="0.3" stop-color="white" stop-opacity="0.45"/>
<stop offset="0.45" stop-color="white" stop-opacity="0.65"/>
<stop offset="0.6" stop-color="white" stop-opacity="0.8"/>
<stop offset="0.73" stop-color="white" stop-opacity="0.91"/>
<stop offset="0.85" stop-color="white" stop-opacity="0.98"/>
<stop offset="0.94" stop-color="white"/>
</linearGradient>
</defs>
</svg>
